<?xml version="1.0" encoding="UTF-8" standalone="no"?>
<svg xmlns:xlink="http://www.w3.org/1999/xlink" height="146.8px" width="168.0px" xmlns="http://www.w3.org/2000/svg">
  <g transform="matrix(1.0, 0.0, 0.0, 1.0, 0.0, 0.5)">
    <path d="M161.85 73.8 L164.85 74.25 Q165.8 74.55 165.8 75.35 L165.7 75.45 162.2 75.25 163.05 79.7 Q166.75 82.35 167.35 88.25 167.75 92.8 163.7 94.55 L163.65 97.85 Q165.3 97.3 166.5 95.95 L168.0 94.6 Q168.3 97.6 164.3 99.3 L163.55 99.6 Q163.2 107.7 162.25 115.7 161.15 125.2 158.65 134.2 159.05 136.0 157.75 137.65 L155.3 139.65 Q149.5 143.25 142.65 144.85 128.55 148.25 117.05 143.7 109.85 140.8 103.65 134.75 101.85 133.0 100.45 130.75 96.65 124.55 95.5 117.3 L95.25 115.45 Q95.0 113.15 95.15 110.95 L95.4 110.75 95.65 110.6 95.75 110.6 Q95.3 108.85 95.2 106.85 95.0 101.8 94.05 97.05 92.25 87.4 92.55 77.45 92.65 73.85 93.95 70.85 91.7 70.95 91.0 67.65 90.05 62.85 89.85 57.8 89.7 54.2 89.85 50.6 89.5 49.4 89.6 48.15 L89.8 46.8 89.8 46.7 89.9 46.55 89.9 46.35 90.1 46.25 90.7 46.0 90.7 45.9 Q93.85 48.2 97.45 50.0 101.1 51.85 105.25 52.4 107.15 52.65 108.55 53.35 L144.8 55.4 145.75 55.5 Q146.5 53.65 148.55 52.5 150.95 51.0 152.1 48.45 152.45 47.7 153.05 47.25 L153.05 47.05 153.05 46.9 153.05 46.5 153.0 46.15 153.1 45.7 153.1 45.5 153.3 45.35 153.55 45.25 153.9 45.05 Q157.75 47.75 159.05 52.75 160.15 57.45 159.8 62.4 159.7 64.4 158.7 65.0 160.65 69.25 161.85 73.8 M159.25 93.7 L161.45 93.15 161.8 93.0 163.75 92.05 164.6 91.45 Q165.4 90.9 165.7 89.8 166.55 86.25 164.3 83.35 L163.4 82.25 Q162.15 81.0 160.65 80.3 158.45 79.25 155.65 79.5 L154.9 79.5 Q153.05 80.5 151.9 82.55 150.8 84.55 150.85 86.8 150.75 88.15 150.8 89.5 L152.3 91.15 Q155.45 94.15 159.25 93.7 M162.2 87.15 L163.1 87.2 163.7 87.4 163.75 87.4 164.0 87.6 164.1 87.75 164.1 88.05 164.2 88.75 164.4 89.55 164.15 89.85 163.75 90.05 161.7 90.2 161.55 90.15 160.9 89.8 160.9 89.6 160.8 89.25 160.75 88.65 160.85 87.8 160.85 87.65 161.05 87.55 161.1 87.45 161.3 87.35 161.5 87.35 161.95 87.2 162.2 87.15 M119.1 86.8 L119.1 86.7 Q120.0 81.1 125.3 79.4 L128.55 79.15 Q136.5 79.2 139.45 86.55 140.1 88.25 139.75 90.15 L139.5 91.45 Q138.1 97.05 133.55 98.2 L126.75 97.85 123.75 96.8 Q118.05 94.0 119.1 86.8 M150.3 91.0 Q148.25 88.15 148.9 84.5 149.7 79.35 154.2 77.6 L156.9 77.65 160.35 78.35 159.7 74.95 151.85 73.45 Q151.55 73.35 152.2 73.25 L159.35 73.55 159.4 73.55 158.45 69.6 Q155.0 56.55 140.95 56.55 L108.4 55.25 104.05 54.95 Q99.45 53.6 95.25 51.3 L91.3 48.55 Q91.45 51.9 93.5 54.6 96.25 58.15 100.25 60.35 L102.0 61.3 103.65 62.35 104.5 63.0 103.05 63.6 101.05 63.5 Q99.6 63.0 98.0 61.75 94.45 58.8 91.8 54.95 L91.9 57.3 Q91.95 61.75 92.9 66.05 93.4 68.25 94.45 69.9 95.7 67.55 97.85 65.6 L98.2 65.8 98.5 65.9 Q97.45 69.15 95.8 73.0 94.55 75.7 94.45 78.9 94.1 88.8 96.3 98.25 97.75 104.75 97.35 111.25 L97.3 112.0 97.2 112.75 97.5 115.2 97.7 116.3 Q99.9 128.25 109.15 136.55 112.25 139.25 116.0 140.75 L118.7 141.65 Q134.75 145.85 150.4 140.0 153.25 138.95 155.25 137.05 L156.8 136.65 156.7 136.55 156.65 136.4 157.3 134.25 157.85 131.95 Q161.05 117.4 161.8 102.2 L161.85 100.05 157.55 99.85 Q155.1 99.3 154.5 97.4 157.95 98.9 161.9 98.25 L161.85 95.2 Q155.05 96.85 150.6 91.4 L150.3 91.0 M72.7 26.8 L75.15 29.35 Q79.85 35.0 81.75 41.8 84.7 51.9 84.3 63.1 84.1 70.35 82.25 77.1 L83.8 77.5 Q88.6 78.8 88.9 83.3 89.4 89.75 82.9 91.85 80.25 92.8 78.5 92.4 L78.5 92.6 Q77.3 104.8 77.6 117.05 77.7 121.95 75.25 126.1 71.75 132.1 66.85 135.75 L64.55 137.25 66.85 135.75 66.85 135.8 Q64.55 139.55 59.3 141.0 52.65 142.8 45.95 141.8 45.6 141.75 45.65 141.35 L45.9 141.1 44.95 141.0 Q25.6 139.25 13.25 124.8 11.95 123.25 11.4 121.45 L10.7 119.2 Q8.05 109.4 6.65 99.3 5.7 92.7 6.0 86.25 L4.3 85.65 Q-0.3 83.8 0.0 80.45 L1.75 81.85 Q3.25 83.6 5.5 84.1 L6.1 84.3 6.5 80.85 6.1 80.75 5.9 80.65 Q0.2 78.9 0.6 73.2 1.3 64.15 8.65 61.8 L8.85 58.0 8.35 58.1 2.25 58.75 2.15 58.65 Q2.15 57.7 3.15 57.4 L8.95 56.6 Q9.2 53.85 8.85 51.0 7.75 40.9 12.25 32.85 10.9 30.2 12.75 27.35 22.35 13.55 38.25 13.05 38.45 11.45 40.15 9.1 L40.7 9.0 42.6 9.0 43.25 9.0 Q44.45 6.65 46.7 4.9 50.75 1.85 55.35 0.7 L64.45 0.1 Q67.8 0.1 70.55 1.55 71.85 2.45 72.5 4.2 L73.1 7.45 Q73.5 10.5 73.1 13.75 72.7 16.4 71.15 18.65 70.35 19.9 69.2 20.6 73.1 23.15 72.7 26.8 72.6 27.95 72.1 29.05 72.6 27.95 72.7 26.8 M64.55 137.25 L65.45 136.4 66.55 135.35 Q74.35 127.35 75.35 118.6 76.35 109.1 75.95 94.5 75.85 92.7 76.25 91.35 L75.05 90.95 Q73.4 90.45 73.9 88.9 L74.1 88.7 74.3 88.5 74.75 88.4 75.15 88.4 75.75 88.6 77.3 89.3 77.5 89.3 77.7 89.1 77.8 89.3 77.9 89.3 Q85.25 90.85 86.75 84.55 87.35 82.0 85.05 81.05 83.0 80.25 81.45 79.45 L81.35 79.45 80.85 79.65 80.75 79.65 80.35 79.55 80.15 78.5 79.0 77.5 79.2 77.2 Q79.5 77.0 79.95 76.9 L80.05 76.9 Q80.05 74.55 80.65 72.0 82.15 66.05 82.5 59.75 83.4 43.35 73.5 30.7 L72.1 29.05 70.75 31.6 68.3 34.65 Q64.0 39.65 58.1 42.6 49.15 46.9 39.95 48.45 37.1 49.95 34.45 51.8 32.5 53.15 30.9 52.0 L30.4 51.7 Q19.9 45.05 13.45 34.9 12.75 36.6 12.55 38.55 L11.0 56.3 17.45 56.0 Q18.15 56.1 17.85 56.2 L10.9 57.7 10.9 58.0 10.6 61.4 12.25 61.1 15.3 61.0 Q20.4 62.8 21.4 68.6 22.2 73.1 19.55 76.45 L19.35 76.8 18.65 80.15 Q17.45 86.15 21.0 89.3 22.2 90.45 24.05 91.15 26.8 92.15 29.65 91.05 L33.45 89.3 34.75 88.7 34.65 89.3 Q33.55 95.25 25.2 93.9 19.9 93.0 17.85 89.3 16.7 87.05 16.7 83.9 L16.9 79.0 Q13.15 82.0 7.95 81.15 L7.85 84.55 Q11.85 84.85 15.3 83.3 14.7 85.45 11.95 86.15 L7.85 86.55 Q7.85 93.6 8.95 100.85 9.6 105.1 9.9 109.4 10.2 115.95 13.15 121.15 15.4 125.1 19.15 128.25 25.8 133.95 41.2 139.5 L46.05 140.85 47.7 141.2 Q57.9 142.85 64.55 137.25 M80.75 82.2 L81.15 82.4 81.35 82.5 81.55 82.7 81.65 83.3 81.75 84.0 81.55 84.75 81.35 85.15 79.4 85.35 79.0 84.85 78.9 84.4 Q78.9 83.9 79.2 83.5 L79.5 82.9 79.7 82.5 Q79.85 82.4 79.95 82.4 L80.35 82.2 80.75 82.2 M125.25 76.6 L128.5 76.65 Q129.3 76.6 129.5 77.3 L129.4 77.5 Q126.05 77.55 122.85 78.55 L121.6 78.8 Q120.9 79.1 120.7 78.45 L120.7 78.3 Q121.45 77.3 123.1 77.1 L124.45 76.8 124.9 76.7 125.25 76.6 M157.7 59.55 Q157.75 56.05 156.7 52.8 155.9 50.35 154.6 48.15 L151.85 51.6 Q149.9 53.95 147.55 55.8 153.95 57.1 157.45 62.8 L157.7 59.55 M130.1 96.9 Q136.3 96.8 137.55 91.75 137.85 90.4 137.8 88.75 137.7 82.35 130.85 81.2 128.1 80.7 125.45 81.3 124.8 81.65 124.25 82.1 120.9 84.55 120.85 87.95 120.75 90.2 122.2 92.9 123.3 94.95 125.25 95.95 126.55 96.55 128.2 96.75 L130.1 96.9 M133.85 88.45 L134.65 88.45 135.0 88.5 135.2 88.85 135.7 89.85 135.8 91.05 135.6 91.55 135.15 91.85 Q134.0 92.35 133.15 91.25 L132.55 90.35 132.65 90.15 132.95 89.55 133.4 88.75 Q133.6 88.45 133.85 88.45 M135.95 98.5 L135.95 98.6 Q136.55 100.8 132.9 101.65 130.05 102.25 127.4 101.55 125.65 101.15 125.0 99.9 L132.5 100.0 Q133.7 100.0 134.6 99.4 135.2 98.9 135.85 98.6 L135.95 98.5 M54.45 10.5 Q56.5 11.55 56.05 14.1 61.35 16.3 66.45 18.95 L66.55 18.95 68.8 18.95 69.35 18.85 Q71.15 15.8 71.25 12.45 71.35 9.9 70.75 7.45 L70.35 6.0 Q70.15 5.0 69.2 4.5 61.35 -0.4 51.1 4.5 49.55 5.1 48.65 6.35 46.9 8.25 45.45 9.0 L53.1 9.9 Q53.95 10.1 54.45 10.5 M57.5 18.15 L54.15 17.65 Q54.65 18.65 54.75 20.1 L54.75 21.95 54.65 22.25 Q53.95 31.4 45.9 37.85 39.95 42.4 36.0 48.25 39.15 46.4 42.2 46.2 44.95 45.15 48.0 44.25 55.55 42.1 62.3 37.75 L64.85 35.7 67.9 32.35 Q69.55 30.2 70.65 27.85 L71.05 27.05 Q69.95 25.4 68.5 24.05 67.3 22.75 65.85 21.7 L63.4 21.4 63.2 21.3 63.0 21.1 63.0 20.9 62.9 20.6 63.0 20.4 63.2 20.1 Q62.6 19.7 61.8 19.4 59.75 18.55 57.5 18.15 M42.1 11.1 L42.0 11.1 41.0 11.1 41.0 11.2 40.9 11.45 40.9 11.75 40.8 12.15 40.7 12.55 40.6 12.95 40.35 13.15 40.9 13.45 40.9 13.65 40.9 14.0 40.9 14.2 52.2 14.9 53.95 14.8 53.95 14.5 54.05 13.65 Q53.95 12.95 52.9 12.65 L48.0 11.45 42.6 11.2 42.1 11.1 M49.15 16.95 L42.0 16.2 41.6 16.2 Q39.85 17.15 38.35 18.25 37.2 19.05 36.2 20.1 L34.25 22.35 Q28.65 29.45 28.55 37.4 28.55 43.75 32.0 47.95 L33.25 49.15 Q34.35 46.6 36.4 44.45 38.55 42.2 41.1 40.4 48.65 35.2 51.1 27.25 51.9 24.4 52.0 21.7 L52.1 19.8 51.9 17.35 49.15 16.95 M71.75 41.6 L71.85 41.6 72.2 41.7 72.4 41.8 72.5 42.0 72.6 42.3 72.6 42.5 72.6 42.75 72.5 42.95 72.1 43.25 Q71.25 43.95 70.65 43.25 L70.65 42.6 70.95 42.1 71.35 41.8 71.75 41.6 M63.4 44.65 L63.5 44.65 63.8 44.75 64.0 44.85 64.15 45.05 64.35 45.4 64.25 45.6 64.25 45.8 64.15 46.0 63.7 46.3 Q62.9 47.0 62.3 46.3 L62.3 45.7 62.6 45.15 Q62.7 44.95 63.0 44.85 L63.4 44.65 M68.8 49.05 L69.0 48.95 Q69.2 48.75 69.55 48.75 L69.85 48.85 69.95 48.95 70.15 49.15 70.25 49.45 70.25 49.65 70.15 49.85 70.15 50.05 69.75 50.35 Q69.1 51.0 68.6 50.7 L68.4 50.35 Q68.2 50.05 68.3 49.75 68.3 49.55 68.6 49.25 L68.8 49.05 M52.9 61.6 L52.4 61.8 52.1 61.7 50.65 61.4 Q47.0 60.35 43.25 60.35 L43.1 60.15 Q43.35 59.35 44.25 59.35 L47.9 59.25 48.3 59.35 48.85 59.45 50.35 59.75 Q52.2 59.95 53.1 61.1 L53.1 61.3 52.9 61.6 M49.75 63.1 Q54.15 65.25 55.05 70.55 56.8 80.65 46.6 83.3 L45.35 83.6 38.95 83.8 Q33.25 82.5 31.8 74.85 31.4 72.7 32.1 70.75 35.25 62.4 44.25 62.2 L47.9 62.4 Q48.95 62.7 49.75 63.1 M47.2 85.65 L48.65 85.55 48.0 86.35 Q47.3 87.05 46.0 87.5 L39.75 87.7 Q35.6 86.75 36.3 84.3 L36.3 84.2 36.4 84.3 Q37.1 84.65 37.8 85.15 38.85 85.85 40.15 85.85 L47.2 85.65 M14.25 29.25 L14.35 29.55 15.3 31.7 Q20.1 41.9 29.35 48.85 28.25 47.7 27.65 46.2 23.65 38.55 28.05 28.85 30.3 23.95 33.65 20.3 L35.9 18.25 Q37.5 16.85 39.35 15.6 L38.45 14.7 Q25.3 15.5 15.4 25.7 13.55 27.55 14.25 29.25 M12.25 32.85 L12.35 32.95 13.45 34.9 12.35 32.95 12.25 32.85 M13.65 63.1 L10.3 63.3 Q9.4 63.5 8.55 63.95 5.9 64.95 4.0 67.6 1.55 70.95 2.55 74.95 2.85 76.15 3.75 76.8 5.3 77.8 6.85 78.4 L8.15 78.9 9.9 79.2 Q13.85 79.65 17.25 76.55 L19.35 74.35 19.25 71.25 18.95 68.95 Q18.65 67.7 17.95 66.5 16.6 64.25 14.5 63.1 L13.65 63.1 M6.4 71.9 L6.75 72.0 7.45 72.1 7.65 72.2 7.75 72.3 7.95 72.4 7.95 72.6 8.05 73.5 8.05 74.25 7.95 74.65 7.95 74.85 7.25 75.25 4.3 74.95 4.0 74.65 4.2 73.7 4.3 72.9 4.3 72.6 4.4 72.4 4.7 72.2 5.4 72.0 6.4 71.9 M38.45 72.8 Q38.75 72.8 38.95 73.1 L39.45 74.0 39.85 74.75 39.95 74.95 39.25 75.95 Q38.35 77.2 37.0 76.7 L36.5 76.35 36.3 75.75 36.4 74.45 36.9 73.3 37.1 72.9 37.5 72.8 38.45 72.8 M22.2 98.1 L22.35 98.1 22.65 98.2 22.85 98.3 23.05 98.4 23.25 98.8 23.25 99.2 23.25 99.6 23.25 99.7 Q27.85 99.9 32.4 99.6 36.1 99.3 38.05 101.55 36.4 103.7 32.85 102.35 L32.4 102.25 22.95 101.35 Q20.4 100.95 21.6 98.4 L21.8 98.2 22.2 98.1 M69.75 58.95 L70.05 59.05 70.15 59.15 70.35 59.35 70.45 59.65 70.45 59.85 70.35 60.05 70.35 60.25 69.95 60.55 Q69.1 61.3 68.6 60.55 68.4 60.25 68.5 59.95 L68.8 59.45 69.2 59.15 69.75 58.95 M49.15 65.45 Q48.55 64.95 47.8 64.55 L47.7 64.55 Q44.75 63.95 41.7 64.55 33.95 65.95 33.95 73.2 33.95 82.3 42.8 82.3 L44.45 82.2 44.95 82.1 Q49.65 81.45 51.7 77.6 55.55 69.95 49.15 65.45 M156.8 136.65 L156.8 136.75 156.8 136.95 156.95 137.1 157.25 137.3 157.7 137.2 158.0 136.3 158.65 134.2 158.0 136.3 157.7 137.2 157.25 137.3 156.95 137.1 156.8 136.95 156.8 136.75 156.8 136.65 M47.7 141.2 L45.9 141.1 47.7 141.2 M95.75 110.6 Q96.15 112.15 96.85 113.5 L97.1 113.35 97.2 112.75 97.1 113.35 96.85 113.5 Q96.15 112.15 95.75 110.6" fill="#1e1818" fill-rule="evenodd" stroke="none"/>
    <path d="M139.5 91.45 L146.8 90.9 150.3 91.0 150.6 91.4 Q155.05 96.85 161.85 95.2 L161.9 98.25 Q157.95 98.9 154.5 97.4 155.1 99.3 157.55 99.85 L161.85 100.05 161.8 102.2 Q161.05 117.4 157.85 131.95 L157.3 134.25 156.65 136.4 156.7 136.55 156.8 136.65 155.25 137.05 Q153.25 138.95 150.4 140.0 134.75 145.85 118.7 141.65 L116.0 140.75 Q114.65 136.95 114.2 134.95 L113.4 130.2 112.5 129.7 112.05 120.5 112.0 119.75 Q111.55 111.9 116.35 104.05 119.05 99.75 123.75 96.8 L126.75 97.85 133.55 98.2 Q138.1 97.05 139.5 91.45 M135.95 98.5 L135.85 98.6 Q135.2 98.9 134.6 99.4 133.7 100.0 132.5 100.0 L125.0 99.9 Q125.65 101.15 127.4 101.55 130.05 102.25 132.9 101.65 136.55 100.8 135.95 98.6 L135.95 98.5 M145.8 93.95 Q141.7 93.75 142.5 97.3 143.0 99.3 144.05 101.4 144.75 103.1 146.5 102.6 L146.4 103.35 146.15 105.4 146.1 106.3 Q144.6 106.65 143.35 107.45 142.15 108.2 141.35 109.4 L141.4 110.0 Q142.45 110.9 143.65 109.8 147.2 106.6 150.25 109.95 151.4 111.3 152.95 111.35 154.05 110.25 152.8 109.2 L150.0 106.9 Q149.25 106.15 148.25 106.15 L148.25 105.5 Q148.15 104.4 148.35 103.35 148.65 102.4 148.45 101.55 L148.35 101.55 Q149.7 100.4 150.65 98.7 151.5 97.1 151.0 95.5 149.75 92.35 145.8 93.95" fill="#ece5df" fill-rule="evenodd" stroke="none"/>
    <path d="M103.05 63.6 L103.9 65.7 103.9 66.5 103.85 69.75 Q104.0 77.25 106.5 81.6 109.65 87.15 116.25 87.05 L119.1 86.8 Q118.05 94.0 123.75 96.8 119.05 99.75 116.35 104.05 111.55 111.9 112.0 119.75 L112.05 120.5 112.5 129.7 113.4 130.2 114.2 134.95 Q114.65 136.95 116.0 140.75 112.25 139.25 109.15 136.55 99.9 128.25 97.7 116.3 L97.5 115.2 97.5 114.75 97.6 113.15 97.3 112.0 97.35 111.25 Q97.75 104.75 96.3 98.25 94.1 88.8 94.45 78.9 94.55 75.7 95.8 73.0 97.45 69.15 98.5 65.9 L98.2 65.8 Q99.8 64.1 101.05 63.5 L103.05 63.6" fill="#c7762d" fill-rule="evenodd" stroke="none"/>
    <path d="M72.1 29.05 L73.5 30.7 Q83.4 43.35 82.5 59.75 82.15 66.05 80.65 72.0 80.05 74.55 80.05 76.9 L79.95 76.9 Q79.5 77.0 79.2 77.2 L79.0 77.5 80.15 78.5 80.35 79.55 80.75 79.65 80.85 79.65 81.35 79.45 81.45 79.45 Q83.0 80.25 85.05 81.05 87.35 82.0 86.75 84.55 85.25 90.85 77.9 89.3 L77.8 89.3 77.7 89.1 77.5 89.3 77.3 89.3 75.75 88.6 75.15 88.4 74.75 88.4 74.3 88.5 74.1 88.7 73.9 88.9 Q73.4 90.45 75.05 90.95 L76.25 91.35 Q75.85 92.7 75.95 94.5 76.35 109.1 75.35 118.6 74.35 127.35 66.55 135.35 L65.45 136.4 64.55 137.25 Q57.9 142.85 47.7 141.2 L46.05 140.85 41.2 139.5 Q25.8 133.95 19.15 128.25 15.4 125.1 13.15 121.15 L15.7 122.85 20.7 126.1 Q23.85 128.05 25.7 128.45 34.95 130.5 39.35 130.5 49.05 130.5 56.3 124.7 61.05 120.8 62.7 116.25 64.15 112.45 64.15 105.65 64.15 99.7 62.1 95.25 60.15 91.05 56.9 89.0 56.3 88.5 55.35 89.0 51.3 88.6 48.0 86.35 L48.65 85.55 47.2 85.65 45.35 83.6 46.6 83.3 Q56.8 80.65 55.05 70.55 54.15 65.25 49.75 63.1 L50.85 62.5 52.4 61.8 52.9 61.6 Q57.1 59.95 62.1 59.95 L65.95 60.25 65.45 59.65 Q65.45 58.95 66.65 57.1 68.0 55.05 68.2 53.55 L68.6 50.7 Q69.1 51.0 69.75 50.35 L70.15 50.05 70.15 49.85 70.25 49.65 70.25 49.45 70.15 49.15 69.95 48.95 69.85 48.85 69.55 48.75 Q69.2 48.75 69.0 48.95 L68.8 49.05 69.0 44.75 Q69.0 38.75 68.3 34.65 L70.75 31.6 72.1 29.05 M80.75 82.2 L80.35 82.2 79.95 82.4 Q79.85 82.4 79.7 82.5 L79.5 82.9 79.2 83.5 Q78.9 83.9 78.9 84.4 L79.0 84.85 79.4 85.35 81.35 85.15 81.55 84.75 81.75 84.0 81.65 83.3 81.55 82.7 81.35 82.5 81.15 82.4 80.75 82.2 M71.75 41.6 L71.35 41.8 70.95 42.1 70.65 42.6 70.65 43.25 Q71.25 43.95 72.1 43.25 L72.5 42.95 72.6 42.75 72.6 42.5 72.6 42.3 72.5 42.0 72.4 41.8 72.2 41.7 71.85 41.6 71.75 41.6 M69.75 58.95 L69.2 59.15 68.8 59.45 68.5 59.95 Q68.4 60.25 68.6 60.55 69.1 61.3 69.95 60.55 L70.35 60.25 70.35 60.05 70.45 59.85 70.45 59.65 70.35 59.35 70.15 59.15 70.05 59.05 69.75 58.95" fill="#cb9a6a" fill-rule="evenodd" stroke="none"/>
    <path d="M119.1 86.8 L116.25 87.05 Q109.65 87.15 106.5 81.6 104.0 77.25 103.85 69.75 L103.9 66.5 103.9 65.7 103.05 63.6 104.5 63.0 103.65 62.35 102.0 61.3 100.25 60.35 Q96.25 58.15 93.5 54.6 91.45 51.9 91.3 48.55 L95.25 51.3 Q99.45 53.6 104.05 54.95 L108.4 55.25 140.95 56.55 Q155.0 56.55 158.45 69.6 L159.4 73.55 159.35 73.55 152.2 73.25 Q151.55 73.35 151.85 73.45 L159.7 74.95 160.35 78.35 156.9 77.65 154.2 77.6 Q149.7 79.35 148.9 84.5 148.25 88.15 150.3 91.0 L146.8 90.9 139.5 91.45 139.75 90.15 Q140.1 88.25 139.45 86.55 136.5 79.2 128.55 79.15 L125.3 79.4 Q120.0 81.1 119.1 86.7 L119.1 86.8 M125.25 76.6 L124.9 76.7 124.45 76.8 123.1 77.1 Q121.45 77.3 120.7 78.3 L120.7 78.45 Q120.9 79.1 121.6 78.8 L122.85 78.55 Q126.05 77.55 129.4 77.5 L129.5 77.3 Q129.3 76.6 128.5 76.65 L125.25 76.6" fill="#f6943a" fill-rule="evenodd" stroke="none"/>
    <path d="M157.7 59.55 L157.45 62.8 Q153.95 57.1 147.55 55.8 149.9 53.95 151.85 51.6 L154.6 48.15 Q155.9 50.35 156.7 52.8 157.75 56.05 157.7 59.55" fill="#df9b5d" fill-rule="evenodd" stroke="none"/>
    <path d="M70.75 7.45 L67.1 7.45 Q59.85 7.95 54.45 10.5 53.95 10.1 53.1 9.9 L45.45 9.0 Q46.9 8.25 48.65 6.35 49.55 5.1 51.1 4.5 61.35 -0.4 69.2 4.5 70.15 5.0 70.35 6.0 L70.75 7.45 M32.0 47.95 Q28.55 43.75 28.55 37.4 28.65 29.45 34.25 22.35 L36.2 20.1 Q37.2 19.05 38.35 18.25 39.85 17.15 41.6 16.2 L42.0 16.2 49.15 16.95 46.2 19.05 44.55 20.6 41.1 25.6 Q38.95 28.85 38.85 30.3 L42.2 30.3 38.45 33.65 Q35.15 36.9 34.25 39.15 L32.0 47.95 M14.25 29.25 Q13.55 27.55 15.4 25.7 25.3 15.5 38.45 14.7 L39.35 15.6 Q37.5 16.85 35.9 18.25 L33.65 20.3 Q30.3 23.95 28.05 28.85 23.65 38.55 27.65 46.2 28.25 47.7 29.35 48.85 20.1 41.9 15.3 31.7 L14.35 29.55 14.25 29.25" fill="#955f29" fill-rule="evenodd" stroke="none"/>
    <path d="M54.45 10.5 Q59.85 7.95 67.1 7.45 L70.75 7.45 Q71.35 9.9 71.25 12.45 71.15 15.8 69.35 18.85 L68.8 18.95 66.55 18.95 66.45 18.95 Q61.35 16.3 56.05 14.1 56.5 11.55 54.45 10.5 M57.5 18.15 Q59.75 18.55 61.8 19.4 62.6 19.7 63.2 20.1 L63.0 20.4 62.9 20.6 63.0 20.9 63.0 21.1 63.2 21.3 63.4 21.4 65.85 21.7 Q67.3 22.75 68.5 24.05 69.95 25.4 71.05 27.05 L70.65 27.85 Q69.55 30.2 67.9 32.35 L64.85 35.7 62.3 37.75 Q55.55 42.1 48.0 44.25 44.95 45.15 42.2 46.2 39.15 46.4 36.0 48.25 39.95 42.4 45.9 37.85 53.95 31.4 54.65 22.25 L54.75 21.95 54.75 20.1 Q54.65 18.65 54.15 17.65 L57.5 18.15 M49.15 16.95 L51.9 17.35 52.1 19.8 52.0 21.7 Q51.9 24.4 51.1 27.25 48.65 35.2 41.1 40.4 38.55 42.2 36.4 44.45 34.35 46.6 33.25 49.15 L32.0 47.95 34.25 39.15 Q35.15 36.9 38.45 33.65 L42.2 30.3 38.85 30.3 Q38.95 28.85 41.1 25.6 L44.55 20.6 46.2 19.05 49.15 16.95" fill="#583818" fill-rule="evenodd" stroke="none"/>
    <path d="M42.1 11.1 L42.6 11.2 48.0 11.45 52.9 12.65 Q53.95 12.95 54.05 13.65 L53.95 14.5 53.95 14.8 52.2 14.9 40.9 14.2 40.9 14.0 40.9 13.65 40.9 13.45 40.35 13.15 40.6 12.95 40.7 12.55 40.8 12.15 40.9 11.75 40.9 11.45 41.0 11.2 41.0 11.1 42.0 11.1 42.1 11.1" fill="#283b41" fill-rule="evenodd" stroke="none"/>
    <path d="M63.4 44.65 L63.0 44.85 Q62.7 44.95 62.6 45.15 L62.3 45.7 62.3 46.3 Q62.9 47.0 63.7 46.3 L64.15 46.0 64.25 45.8 64.25 45.6 64.35 45.4 64.15 45.05 64.0 44.85 63.8 44.75 63.5 44.65 63.4 44.65 M68.8 49.05 L68.6 49.25 Q68.3 49.55 68.3 49.75 68.2 50.05 68.4 50.35 L68.6 50.7 68.2 53.55 Q68.0 55.05 66.65 57.1 65.45 58.95 65.45 59.65 L65.95 60.25 62.1 59.95 Q57.1 59.95 52.9 61.6 L53.1 61.3 53.1 61.1 Q52.2 59.95 50.35 59.75 L48.85 59.45 48.3 59.35 47.9 59.25 44.25 59.35 Q43.35 59.35 43.1 60.15 L43.25 60.35 Q47.0 60.35 50.65 61.4 L52.1 61.7 52.4 61.8 50.85 62.5 49.75 63.1 Q48.95 62.7 47.9 62.4 L44.25 62.2 Q35.25 62.4 32.1 70.75 31.4 72.7 31.8 74.85 33.25 82.5 38.95 83.8 L45.35 83.6 47.2 85.65 40.15 85.85 Q38.85 85.85 37.8 85.15 37.1 84.65 36.4 84.3 L36.3 84.2 36.3 84.3 Q35.6 86.75 39.75 87.7 L46.0 87.5 Q47.3 87.05 48.0 86.35 51.3 88.6 55.35 89.0 56.3 88.5 56.9 89.0 60.15 91.05 62.1 95.25 64.15 99.7 64.15 105.65 64.15 112.45 62.7 116.25 61.05 120.8 56.3 124.7 49.05 130.5 39.35 130.5 34.95 130.5 25.7 128.45 23.85 128.05 20.7 126.1 L15.7 122.85 13.15 121.15 Q10.2 115.95 9.9 109.4 9.6 105.1 8.95 100.85 7.85 93.6 7.85 86.55 L11.95 86.15 Q14.7 85.45 15.3 83.3 11.85 84.85 7.85 84.55 L7.95 81.15 Q13.15 82.0 16.9 79.0 L16.7 83.9 Q16.7 87.05 17.85 89.3 19.9 93.0 25.2 93.9 33.55 95.25 34.65 89.3 L34.75 88.7 33.45 89.3 29.65 91.05 Q26.8 92.15 24.05 91.15 22.2 90.45 21.0 89.3 17.45 86.15 18.65 80.15 L19.35 76.8 19.55 76.45 Q22.2 73.1 21.4 68.6 20.4 62.8 15.3 61.0 L12.25 61.1 10.6 61.4 10.9 58.0 10.9 57.7 17.85 56.2 Q18.15 56.1 17.45 56.0 L11.0 56.3 12.55 38.55 Q12.75 36.6 13.45 34.9 19.9 45.05 30.4 51.7 L30.9 52.0 Q32.5 53.15 34.45 51.8 37.1 49.95 39.95 48.45 49.15 46.9 58.1 42.6 64.0 39.65 68.3 34.65 69.0 38.75 69.0 44.75 L68.8 49.05 M22.2 98.1 L21.8 98.2 21.6 98.4 Q20.4 100.95 22.95 101.35 L32.4 102.25 32.85 102.35 Q36.4 103.7 38.05 101.55 36.1 99.3 32.4 99.6 27.85 99.9 23.25 99.7 L23.25 99.6 23.25 99.2 23.25 98.8 23.05 98.4 22.85 98.3 22.65 98.2 22.35 98.1 22.2 98.1" fill="#ffcc99" fill-rule="evenodd" stroke="none"/>
    <path d="M155.65 79.5 Q158.45 79.25 160.65 80.3 162.15 81.0 163.4 82.25 L164.3 83.35 Q166.55 86.25 165.7 89.8 165.4 90.9 164.6 91.45 L163.75 92.05 161.8 93.0 161.45 93.15 159.25 93.7 157.2 91.95 156.85 91.5 Q154.6 88.45 154.55 83.85 154.5 81.8 155.45 79.7 L155.65 79.5 M162.2 87.15 L161.95 87.2 161.5 87.35 161.3 87.35 161.1 87.45 161.05 87.55 160.85 87.65 160.85 87.8 160.75 88.65 160.8 89.25 160.9 89.6 160.9 89.8 161.55 90.15 161.7 90.2 163.75 90.05 164.15 89.85 164.4 89.55 164.2 88.75 164.1 88.05 164.1 87.75 164.0 87.6 163.75 87.4 163.7 87.4 163.1 87.2 162.2 87.15 M124.25 82.1 Q124.8 81.65 125.45 81.3 128.1 80.7 130.85 81.2 137.7 82.35 137.8 88.75 137.85 90.4 137.55 91.75 136.3 96.8 130.1 96.9 L127.3 94.9 125.8 93.2 Q123.35 89.9 123.25 85.95 123.2 83.7 124.25 82.1 M133.85 88.45 Q133.6 88.45 133.4 88.75 L132.95 89.55 132.65 90.15 132.55 90.35 133.15 91.25 Q134.0 92.35 135.15 91.85 L135.6 91.55 135.8 91.05 135.7 89.85 135.2 88.85 135.0 88.5 134.65 88.45 133.85 88.45 M38.45 72.8 L37.5 72.8 37.1 72.9 36.9 73.3 36.4 74.45 36.3 75.75 36.5 76.35 37.0 76.7 Q38.35 77.2 39.25 75.95 L39.95 74.95 39.85 74.75 39.45 74.0 38.95 73.1 Q38.75 72.8 38.45 72.8 M6.4 71.9 L5.4 72.0 4.7 72.2 4.4 72.4 4.3 72.6 4.3 72.9 4.2 73.7 4.0 74.65 4.3 74.95 7.25 75.25 7.95 74.85 7.95 74.65 8.05 74.25 8.05 73.5 7.95 72.6 7.95 72.4 7.75 72.3 7.65 72.2 7.45 72.1 6.75 72.0 6.4 71.9 M9.9 79.2 L8.15 78.9 6.85 78.4 Q5.3 77.8 3.75 76.8 2.85 76.15 2.55 74.95 1.55 70.95 4.0 67.6 5.9 64.95 8.55 63.95 9.4 63.5 10.3 63.3 L13.65 63.1 13.85 63.3 Q15.0 65.65 15.0 68.0 15.0 73.2 12.55 76.7 11.4 78.2 9.9 79.2 M42.8 82.3 Q33.95 82.3 33.95 73.2 33.95 65.95 41.7 64.55 44.75 63.95 47.7 64.55 L47.8 64.55 Q48.55 64.95 49.15 65.45 50.35 67.2 50.35 69.75 50.35 74.25 47.6 78.0 46.2 80.05 44.15 81.45 L42.8 82.3" fill="#ffffff" fill-rule="evenodd" stroke="none"/>
    <path d="M155.65 79.5 L155.45 79.7 Q154.5 81.8 154.55 83.85 154.6 88.45 156.85 91.5 L157.2 91.95 159.25 93.7 Q155.45 94.15 152.3 91.15 L150.8 89.5 Q150.75 88.15 150.85 86.8 150.8 84.55 151.9 82.55 153.05 80.5 154.9 79.5 L155.65 79.5 M124.25 82.1 Q123.2 83.7 123.25 85.95 123.35 89.9 125.8 93.2 L127.3 94.9 130.1 96.9 128.2 96.75 Q126.55 96.55 125.25 95.95 123.3 94.95 122.2 92.9 120.75 90.2 120.85 87.95 120.9 84.55 124.25 82.1 M13.65 63.1 L14.5 63.1 Q16.6 64.25 17.95 66.5 18.65 67.7 18.95 68.95 L19.25 71.25 19.35 74.35 17.25 76.55 Q13.85 79.65 9.9 79.2 11.4 78.2 12.55 76.7 15.0 73.2 15.0 68.0 15.0 65.65 13.85 63.3 L13.65 63.1 M49.15 65.45 Q55.55 69.95 51.7 77.6 49.65 81.45 44.95 82.1 L44.45 82.2 42.8 82.3 44.15 81.45 Q46.2 80.05 47.6 78.0 50.35 74.25 50.35 69.75 50.35 67.2 49.15 65.45" fill="#d0caca" fill-rule="evenodd" stroke="none"/>
    <path d="M101.05 63.5 Q99.8 64.1 98.2 65.8 L97.85 65.6 Q95.7 67.55 94.45 69.9 93.4 68.25 92.9 66.05 91.95 61.75 91.9 57.3 L91.8 54.95 Q94.45 58.8 98.0 61.75 99.6 63.0 101.05 63.5" fill="#825227" fill-rule="evenodd" stroke="none"/>
    <path d="M146.2 95.85 L149.35 95.8 149.55 95.9 149.55 96.05 149.1 96.7 148.25 98.75 146.9 100.55 146.4 100.8 146.05 100.15 Q145.25 99.5 144.9 98.5 L143.95 96.8 143.95 96.6 143.85 96.45 144.05 96.25 145.85 95.95 146.2 95.85" fill="#382c2c" fill-rule="evenodd" stroke="none"/>
    <path d="M145.8 93.95 Q149.75 92.35 151.0 95.5 151.5 97.1 150.65 98.7 149.7 100.4 148.35 101.55 L148.45 101.55 Q148.65 102.4 148.35 103.35 148.15 104.4 148.25 105.5 L148.25 106.15 Q149.25 106.15 150.0 106.9 L152.8 109.2 Q154.05 110.25 152.95 111.35 151.4 111.3 150.25 109.95 147.2 106.6 143.65 109.8 142.45 110.9 141.4 110.0 L141.35 109.4 Q142.15 108.2 143.35 107.45 144.6 106.65 146.1 106.3 L146.15 105.4 146.4 103.35 146.5 102.6 Q144.75 103.1 144.05 101.4 143.0 99.3 142.5 97.3 141.7 93.75 145.8 93.95 M146.2 95.85 L145.85 95.95 144.05 96.25 143.85 96.45 143.95 96.6 143.95 96.8 144.9 98.5 Q145.25 99.5 146.05 100.15 L146.4 100.8 146.9 100.55 148.25 98.75 149.1 96.7 149.55 96.05 149.55 95.9 149.35 95.8 146.2 95.85" fill="#2e2121" fill-rule="evenodd" stroke="none"/>
    <path d="M162.2 75.25 L163.05 79.7 M163.7 94.55 L163.65 97.85 M163.55 99.6 Q163.2 107.7 162.25 115.7 161.15 125.2 158.65 134.2 L158.0 136.3 157.7 137.2 157.25 137.3 156.95 137.1 156.8 136.95 156.8 136.75 156.8 136.65 M95.75 110.6 Q95.3 108.85 95.2 106.85 95.0 101.8 94.05 97.05 92.25 87.4 92.55 77.45 92.65 73.85 93.95 70.85 91.7 70.95 91.0 67.65 90.05 62.85 89.85 57.8 89.7 54.2 89.85 50.6 89.5 49.4 89.6 48.15 L89.8 46.8 89.8 46.7 89.9 46.55 89.9 46.35 90.1 46.25 90.7 46.0 90.7 45.9 Q93.85 48.2 97.45 50.0 101.1 51.85 105.25 52.4 107.15 52.65 108.55 53.35 L144.8 55.4 145.75 55.5 Q146.5 53.65 148.55 52.5 150.95 51.0 152.1 48.45 152.45 47.7 153.05 47.25 L153.05 47.05 153.05 46.9 153.05 46.5 153.0 46.15 153.1 45.7 153.1 45.5 153.3 45.35 153.55 45.25 153.9 45.05 Q157.75 47.75 159.05 52.75 160.15 57.45 159.8 62.4 159.7 64.4 158.7 65.0 160.65 69.25 161.85 73.8 M66.85 135.75 Q71.75 132.1 75.25 126.1 77.7 121.95 77.6 117.05 77.3 104.8 78.5 92.6 L78.5 92.4 Q80.25 92.8 82.9 91.85 89.4 89.75 88.9 83.3 88.6 78.8 83.8 77.5 L82.25 77.1 Q84.1 70.35 84.3 63.1 84.7 51.9 81.75 41.8 79.85 35.0 75.15 29.35 L72.7 26.8 Q72.6 27.95 72.1 29.05 M64.55 137.25 L66.85 135.75 M45.9 141.1 L44.95 141.0 Q25.6 139.25 13.25 124.8 11.95 123.25 11.4 121.45 L10.7 119.2 Q8.05 109.4 6.65 99.3 5.7 92.7 6.0 86.25 M6.1 84.3 L6.5 80.85 M8.65 61.8 L8.85 58.0 M8.95 56.6 Q9.2 53.85 8.85 51.0 7.75 40.9 12.25 32.85 10.9 30.2 12.75 27.35 22.35 13.55 38.25 13.05 38.45 11.45 40.15 9.1 L40.7 9.0 42.6 9.0 43.25 9.0 Q44.45 6.65 46.7 4.9 50.75 1.85 55.35 0.7 L64.45 0.1 Q67.8 0.1 70.55 1.55 71.85 2.45 72.5 4.2 L73.1 7.45 Q73.5 10.5 73.1 13.75 72.7 16.4 71.15 18.65 70.35 19.9 69.2 20.6 73.1 23.15 72.7 26.8 M68.3 34.65 L70.75 31.6 72.1 29.05 M13.45 34.9 Q19.9 45.05 30.4 51.7 L30.9 52.0 Q32.5 53.15 34.45 51.8 37.1 49.95 39.95 48.45 49.15 46.9 58.1 42.6 64.0 39.65 68.3 34.65 M13.45 34.9 L12.35 32.95 12.25 32.85 M45.9 141.1 L47.7 141.2 M97.3 112.0 L97.2 112.75 97.1 113.35 96.85 113.5 Q96.15 112.15 95.75 110.6" fill="none" stroke="#1e1818" stroke-linecap="round" stroke-linejoin="round" stroke-width="1.0"/>
  </g>
</svg>
