<?xml version="1.0" encoding="UTF-8" standalone="no"?>
<svg xmlns:xlink="http://www.w3.org/1999/xlink" height="84.45px" width="307.85px" xmlns="http://www.w3.org/2000/svg">
  <g transform="matrix(1.0, 0.0, 0.0, 1.0, 2.5, -163.0)">
    <path d="M141.0 219.85 L140.85 223.4 140.7 226.45 140.6 229.2 140.55 231.75 140.55 234.3 140.5 237.0 140.5 240.35 140.55 244.3 137.0 244.2 137.15 239.55 137.15 234.85 137.15 231.55 137.1 228.05 137.05 224.1 136.95 219.8 141.0 219.85 M128.25 244.55 L124.05 244.85 124.45 239.45 124.55 234.25 124.5 230.55 124.3 226.75 127.8 226.55 127.8 227.25 127.75 227.85 Q128.3 227.05 128.95 226.55 L130.15 225.85 131.45 225.55 Q132.6 225.55 133.4 225.9 134.25 226.25 134.75 226.8 L135.5 228.05 135.75 229.35 135.6 230.65 135.1 231.9 134.25 232.75 132.85 233.1 131.55 232.8 130.85 232.1 130.55 231.25 130.5 230.45 130.55 230.0 130.8 229.4 131.2 228.85 131.75 228.35 131.55 228.3 131.35 228.3 Q130.55 228.3 129.95 228.8 129.35 229.3 128.9 230.15 128.45 231.05 128.15 232.2 L127.75 234.8 127.95 239.6 128.25 244.55 M118.75 244.55 L118.55 243.55 118.45 242.55 116.7 244.15 Q115.7 244.75 114.55 244.75 L113.3 244.55 Q112.65 244.35 112.15 243.85 L111.25 242.55 Q110.9 241.7 110.9 240.4 110.9 239.35 111.25 238.55 111.55 237.8 112.05 237.2 L113.15 236.15 114.4 235.35 115.6 234.75 116.5 234.15 117.7 233.0 118.55 231.7 118.3 229.9 117.9 228.8 117.25 228.25 116.35 228.05 Q115.65 228.05 115.15 228.35 L114.35 229.1 Q114.75 229.35 114.95 229.65 L115.25 230.2 115.4 230.8 Q115.4 231.85 114.8 232.45 114.2 233.0 113.25 233.0 L112.4 232.8 Q111.95 232.55 111.65 232.15 L111.2 231.15 111.0 229.95 Q111.0 229.3 111.3 228.55 111.6 227.8 112.25 227.2 112.9 226.55 113.95 226.15 L116.45 225.75 Q117.9 225.75 118.95 226.3 120.0 226.85 120.7 227.8 121.35 228.75 121.65 230.0 L121.95 232.55 121.95 234.7 121.95 237.05 121.95 239.1 122.0 241.05 122.15 242.85 122.35 244.3 118.75 244.55 M166.6 229.8 L166.3 231.05 165.65 231.85 164.9 232.3 164.2 232.45 163.55 232.35 162.8 232.0 162.2 231.3 161.95 230.15 Q161.95 229.75 162.1 229.4 L162.4 228.75 163.05 228.15 162.5 227.55 162.0 227.2 Q161.75 227.05 161.5 227.05 L160.65 227.25 Q160.25 227.45 160.0 227.75 L159.55 228.5 Q159.4 228.9 159.4 229.35 L159.5 230.4 159.85 231.35 160.7 232.4 162.2 233.75 163.9 235.2 165.1 236.6 165.8 238.0 166.05 239.4 165.95 240.5 165.6 241.7 164.95 242.85 163.95 243.85 162.6 244.55 160.8 244.8 158.15 244.35 Q157.1 243.9 156.4 243.25 L155.4 241.85 Q155.05 241.15 155.05 240.6 155.05 240.05 155.2 239.55 L155.65 238.65 156.45 238.05 157.6 237.85 158.6 238.05 159.4 238.55 159.9 239.35 160.1 240.45 160.0 241.0 159.75 241.5 159.2 242.05 159.65 242.3 160.05 242.4 160.4 242.45 160.9 242.35 161.4 242.0 161.85 241.35 162.0 240.5 161.9 239.6 161.55 238.75 160.75 237.75 159.4 236.5 157.9 235.05 156.8 233.55 156.1 231.95 155.9 230.05 Q155.9 229.05 156.3 228.15 156.7 227.2 157.4 226.5 158.15 225.75 159.2 225.3 L161.55 224.9 Q162.85 224.9 163.8 225.3 L165.35 226.4 166.3 227.95 166.6 229.8 M154.1 240.55 Q154.1 241.45 153.7 242.3 L152.55 243.7 Q151.8 244.3 150.85 244.6 L148.8 244.95 147.3 244.75 145.85 244.1 144.55 242.85 Q143.95 242.1 143.5 241.0 L142.8 238.4 Q142.55 236.9 142.55 234.95 142.55 233.1 142.8 231.7 143.05 230.3 143.5 229.25 143.95 228.2 144.55 227.5 L145.85 226.35 Q146.5 225.9 147.25 225.7 L148.65 225.55 150.65 225.85 152.3 226.85 Q153.0 227.5 153.4 228.5 153.8 229.45 153.8 230.7 L153.35 232.95 152.0 235.15 149.75 237.0 146.7 238.3 Q146.75 239.3 146.95 240.05 L147.4 241.45 148.05 242.3 148.9 242.6 149.5 242.5 150.0 242.25 150.45 241.75 149.8 241.3 149.5 240.7 149.35 240.05 Q149.35 239.3 149.65 238.85 L150.35 238.1 Q150.75 237.85 151.15 237.75 L151.85 237.65 152.5 237.75 153.25 238.15 153.85 239.05 154.1 240.55 M150.25 230.7 L150.15 229.65 149.85 228.75 149.35 228.15 148.7 227.95 Q148.05 227.95 147.65 228.55 147.25 229.1 147.0 230.05 146.75 231.05 146.65 232.3 L146.55 234.95 146.55 236.1 148.05 235.1 149.2 233.8 150.0 232.35 150.25 230.7 M97.3 224.7 L94.15 224.5 91.8 224.4 91.1 224.4 90.5 224.45 90.5 230.6 92.45 230.5 93.9 230.35 95.15 230.2 95.15 230.45 95.1 230.75 95.1 231.15 95.15 232.35 95.25 233.8 92.4 233.55 90.55 233.5 90.65 238.55 90.85 241.9 91.05 244.35 90.35 244.3 89.55 244.25 88.4 244.3 87.4 244.35 86.4 244.4 86.6 242.3 86.7 240.2 86.85 238.25 86.9 236.45 87.0 232.65 86.9 228.8 86.85 227.05 86.7 225.15 86.6 223.2 86.4 221.3 89.9 221.45 92.6 221.45 94.65 221.45 96.05 221.4 97.15 221.3 97.15 221.6 97.15 222.35 97.2 223.45 97.3 224.7 M109.65 240.55 Q109.65 241.45 109.25 242.3 L108.1 243.7 106.4 244.6 104.35 244.95 102.85 244.75 101.4 244.1 100.1 242.85 99.05 241.0 98.35 238.4 Q98.1 236.9 98.1 234.95 98.1 233.1 98.35 231.7 98.6 230.3 99.05 229.25 99.5 228.2 100.1 227.5 L101.4 226.35 Q102.05 225.9 102.8 225.7 L104.2 225.55 106.2 225.85 Q107.15 226.2 107.85 226.85 108.55 227.5 108.95 228.5 109.35 229.45 109.35 230.7 L108.9 232.95 107.55 235.15 105.3 237.0 102.25 238.3 Q102.3 239.3 102.5 240.05 L102.95 241.45 103.6 242.3 104.45 242.6 105.05 242.5 105.55 242.25 106.0 241.75 105.35 241.3 105.05 240.7 104.9 240.05 Q104.9 239.3 105.2 238.85 L105.9 238.1 Q106.3 237.85 106.7 237.75 L107.4 237.65 108.05 237.75 108.8 238.15 109.4 239.05 109.65 240.55 M105.8 230.7 L105.7 229.65 105.4 228.75 104.9 228.15 104.25 227.95 Q103.6 227.95 103.2 228.55 102.8 229.1 102.55 230.05 102.3 231.05 102.2 232.3 L102.1 234.95 102.1 236.1 103.6 235.1 104.75 233.8 105.55 232.35 105.8 230.7 M118.5 235.4 L117.35 236.5 116.35 237.25 115.35 238.1 114.55 239.05 Q114.25 239.55 114.25 240.05 114.25 240.75 114.6 241.25 114.95 241.75 115.55 241.75 L116.6 241.45 117.4 240.7 118.0 239.7 118.4 238.7 118.5 235.4 M57.05 220.1 L56.8 224.15 56.6 228.2 Q57.15 227.15 57.85 226.6 58.5 226.0 59.1 225.75 L60.5 225.35 Q61.6 225.35 62.4 225.9 63.2 226.45 63.75 227.5 L64.5 229.95 64.7 233.1 64.5 238.85 Q64.3 241.6 63.7 244.2 L60.05 243.8 60.6 240.3 60.9 237.5 61.0 234.9 61.0 232.35 60.75 230.5 60.2 229.4 Q59.8 229.05 59.15 229.05 L58.15 229.7 57.7 230.3 57.25 231.15 56.8 232.4 56.45 234.0 56.4 237.2 56.4 240.3 56.4 242.3 56.45 244.3 52.9 244.2 53.15 238.5 53.25 232.75 53.1 226.4 52.8 220.05 57.05 220.1 M48.0 244.15 L47.6 244.15 45.75 244.25 43.9 244.55 44.2 238.1 44.3 232.2 44.1 225.05 40.2 225.3 40.15 224.35 40.1 223.5 40.05 222.65 39.9 221.65 41.8 221.65 44.25 221.65 46.65 221.6 49.1 221.55 51.6 221.4 51.5 222.75 51.5 223.9 51.5 224.75 47.65 224.8 47.6 227.8 47.6 230.7 47.7 237.45 48.0 244.15 M77.95 240.55 Q77.95 241.45 77.55 242.3 L76.4 243.7 Q75.65 244.3 74.7 244.6 L72.65 244.95 71.15 244.75 69.7 244.1 68.4 242.85 Q67.8 242.1 67.35 241.0 L66.65 238.4 Q66.4 236.9 66.4 234.95 66.4 233.1 66.65 231.7 66.9 230.3 67.35 229.25 67.8 228.2 68.4 227.5 L69.7 226.35 71.1 225.7 72.5 225.55 74.5 225.85 Q75.45 226.2 76.15 226.85 76.85 227.5 77.25 228.5 77.65 229.45 77.65 230.7 L77.2 232.95 75.85 235.15 73.6 237.0 Q72.25 237.8 70.55 238.3 70.6 239.3 70.8 240.05 L71.25 241.45 71.9 242.3 Q72.25 242.6 72.75 242.6 L73.35 242.5 73.85 242.25 74.3 241.75 73.65 241.3 73.35 240.7 73.2 240.05 Q73.2 239.3 73.5 238.85 L74.2 238.1 75.0 237.75 75.7 237.65 76.35 237.75 Q76.7 237.85 77.1 238.15 L77.7 239.05 77.95 240.55 M74.1 230.7 L74.0 229.65 73.7 228.75 73.2 228.15 72.55 227.95 Q71.9 227.95 71.5 228.55 71.1 229.1 70.85 230.05 70.6 231.05 70.5 232.3 L70.4 234.95 70.4 236.1 71.9 235.1 73.05 233.8 73.85 232.35 74.1 230.7 M302.85 240.55 Q302.85 241.45 302.45 242.3 L301.3 243.7 Q300.55 244.3 299.6 244.6 L297.55 244.95 296.05 244.75 294.6 244.1 293.3 242.85 Q292.7 242.1 292.25 241.0 L291.55 238.4 Q291.3 236.9 291.3 234.95 291.3 233.1 291.55 231.7 291.8 230.3 292.25 229.25 292.7 228.2 293.3 227.5 L294.6 226.35 Q295.25 225.9 296.0 225.7 L297.4 225.55 299.4 225.85 301.05 226.85 Q301.75 227.5 302.15 228.5 302.55 229.45 302.55 230.7 L302.1 232.95 300.75 235.15 298.5 237.0 295.45 238.3 Q295.5 239.3 295.7 240.05 L296.15 241.45 296.8 242.3 297.65 242.6 298.25 242.5 298.75 242.25 299.2 241.75 298.55 241.3 298.25 240.7 298.1 240.05 Q298.1 239.3 298.4 238.85 L299.1 238.1 299.9 237.75 300.6 237.65 301.25 237.75 302.0 238.15 302.6 239.05 302.85 240.55 M299.0 230.7 L298.9 229.65 298.6 228.75 298.1 228.15 297.45 227.95 Q296.8 227.95 296.4 228.55 296.0 229.1 295.75 230.05 295.5 231.05 295.4 232.3 L295.3 234.95 295.3 236.1 296.8 235.1 297.95 233.8 298.75 232.35 299.0 230.7 M283.0 244.55 L278.8 244.85 279.2 239.45 279.3 234.25 279.25 230.55 279.05 226.75 282.55 226.55 282.55 227.25 282.5 227.85 Q283.05 227.05 283.7 226.55 284.35 226.05 284.9 225.85 L286.2 225.55 Q287.35 225.55 288.15 225.9 289.0 226.25 289.5 226.8 L290.25 228.05 290.5 229.35 290.35 230.65 289.85 231.9 289.0 232.75 287.6 233.1 286.3 232.8 285.6 232.1 285.3 231.25 285.25 230.45 285.3 230.0 285.55 229.4 285.95 228.85 286.5 228.35 286.3 228.3 286.1 228.3 Q285.3 228.3 284.7 228.8 284.1 229.3 283.65 230.15 283.2 231.05 282.9 232.2 L282.5 234.8 282.7 239.6 283.0 244.55 M261.3 220.15 L261.1 223.3 260.95 226.45 262.3 226.4 263.7 226.3 263.75 230.3 262.25 230.1 260.8 230.0 260.8 232.6 260.75 235.25 260.8 239.95 261.0 244.65 256.9 244.6 257.25 237.3 257.45 229.9 256.1 229.95 254.8 230.05 254.9 226.35 256.2 226.4 257.45 226.45 257.4 223.35 257.35 220.2 261.3 220.15 M245.9 226.6 L245.85 227.85 Q246.35 227.0 246.95 226.55 L248.0 225.9 248.85 225.7 249.2 225.7 Q250.35 225.7 251.25 226.25 252.1 226.75 252.65 227.8 L253.5 230.25 253.75 233.5 253.75 236.25 253.6 239.05 253.25 241.7 252.75 244.2 249.1 243.8 249.65 240.3 249.95 237.5 250.1 234.9 250.0 232.35 249.65 230.5 249.0 229.4 Q248.55 229.05 247.9 229.05 L247.05 229.7 Q246.65 230.15 246.25 231.15 245.8 232.1 245.5 233.9 L245.45 236.35 245.45 238.85 245.45 241.3 245.45 244.3 241.9 244.2 242.0 240.85 242.0 236.85 242.0 232.15 241.85 226.55 245.9 226.6 M272.7 244.05 L272.8 242.85 272.85 241.75 271.75 243.2 270.6 243.95 269.4 244.3 Q268.25 244.3 267.4 243.7 266.55 243.15 266.0 242.05 265.4 241.0 265.15 239.55 264.85 238.05 264.85 236.2 L265.05 231.2 Q265.2 228.75 265.6 226.45 L269.55 226.85 269.0 230.2 268.7 232.7 268.55 234.8 268.65 237.35 Q268.75 238.45 269.0 239.2 269.25 239.9 269.65 240.3 270.1 240.65 270.75 240.65 L271.6 240.0 272.0 239.4 272.4 238.5 272.8 237.25 273.15 235.6 273.2 233.75 273.2 231.8 273.2 229.3 273.15 226.35 276.7 226.4 276.6 228.6 276.55 230.5 276.5 232.15 276.45 233.65 276.5 235.85 276.55 238.15 276.65 240.8 276.8 244.1 272.7 244.05 M214.05 220.45 Q213.7 225.0 213.5 229.5 L213.3 238.55 213.4 244.65 209.85 244.75 209.95 241.65 208.65 243.45 207.45 244.35 206.2 244.8 204.6 244.35 Q203.75 243.9 203.1 242.8 202.45 241.65 202.05 239.8 201.6 237.95 201.6 235.15 201.6 233.3 201.85 231.9 L202.45 229.45 Q202.8 228.4 203.3 227.7 L204.4 226.55 Q205.0 226.1 205.65 225.9 L206.9 225.75 207.8 225.95 208.75 226.4 209.8 227.3 209.5 220.4 214.05 220.45 M228.05 226.55 L226.65 231.05 225.4 235.45 224.3 239.85 223.35 244.45 218.85 244.55 218.0 240.05 217.1 235.7 216.05 231.35 214.9 226.85 219.4 226.65 220.2 233.5 221.25 240.3 222.5 233.4 223.2 226.5 228.05 226.55 M210.0 236.4 L209.9 230.35 209.55 229.85 209.1 229.35 208.6 229.0 208.05 228.85 Q207.6 228.85 207.2 229.15 L206.35 230.2 Q206.0 230.95 205.8 232.2 205.55 233.4 205.55 235.3 205.55 237.05 205.7 238.15 205.85 239.3 206.15 240.0 L206.75 240.95 207.5 241.2 Q208.05 241.2 208.5 240.8 L209.25 239.85 209.7 238.7 210.0 237.65 210.0 236.4 M240.1 240.55 Q240.1 241.45 239.7 242.3 L238.55 243.7 236.85 244.6 234.8 244.95 233.3 244.75 231.85 244.1 230.55 242.85 Q229.95 242.1 229.5 241.0 L228.8 238.4 Q228.55 236.9 228.55 234.95 228.55 233.1 228.8 231.7 229.05 230.3 229.5 229.25 229.95 228.2 230.55 227.5 L231.85 226.35 Q232.5 225.9 233.25 225.7 L234.65 225.55 236.65 225.85 238.3 226.85 Q239.0 227.5 239.4 228.5 239.8 229.45 239.8 230.7 L239.35 232.95 238.0 235.15 Q237.1 236.15 235.75 237.0 234.4 237.8 232.7 238.3 232.75 239.3 232.95 240.05 L233.4 241.45 234.05 242.3 Q234.4 242.6 234.9 242.6 L235.5 242.5 236.0 242.25 236.45 241.75 235.8 241.3 235.5 240.7 235.35 240.05 Q235.35 239.3 235.65 238.85 L236.35 238.1 Q236.75 237.85 237.15 237.75 L237.85 237.65 238.5 237.75 239.25 238.15 239.85 239.05 240.1 240.55 M236.25 230.7 L236.15 229.65 235.85 228.75 235.35 228.15 234.7 227.95 Q234.05 227.95 233.65 228.55 233.25 229.1 233.0 230.05 232.75 231.05 232.65 232.3 L232.55 234.95 232.55 236.1 234.05 235.1 235.2 233.8 236.0 232.35 236.25 230.7 M187.55 242.05 L187.5 239.65 187.4 237.25 187.3 234.8 187.25 232.3 187.3 229.6 Q187.4 228.25 187.65 226.95 L188.35 224.55 Q188.75 223.45 189.5 222.6 190.2 221.8 191.2 221.3 192.2 220.8 193.6 220.8 194.9 220.8 195.85 221.25 196.85 221.65 197.5 222.35 L198.65 224.05 199.3 226.15 199.65 228.5 199.75 230.9 199.75 231.45 199.7 232.0 199.7 232.6 199.6 233.6 199.55 235.05 199.45 237.25 199.35 240.25 199.25 244.3 194.55 244.15 195.05 240.6 195.4 237.25 193.15 237.15 192.15 237.15 191.3 237.2 191.45 238.95 191.55 240.75 191.75 242.6 191.95 244.3 187.55 244.4 187.55 243.25 187.55 242.05 M178.95 229.8 L178.65 231.05 178.0 231.85 177.25 232.3 176.55 232.45 175.9 232.35 175.15 232.0 174.55 231.3 Q174.3 230.8 174.3 230.15 174.3 229.75 174.45 229.4 L174.75 228.75 175.4 228.15 174.85 227.55 174.35 227.2 173.85 227.05 173.0 227.25 172.35 227.75 Q172.05 228.05 171.9 228.5 171.75 228.9 171.75 229.35 L171.85 230.4 172.2 231.35 173.05 232.4 174.55 233.75 176.25 235.2 177.45 236.6 178.15 238.0 178.4 239.4 178.3 240.5 177.95 241.7 177.3 242.85 176.3 243.85 Q175.7 244.3 174.95 244.55 L173.15 244.8 170.5 244.35 Q169.45 243.9 168.75 243.25 L167.75 241.85 Q167.4 241.15 167.4 240.6 167.4 240.05 167.55 239.55 167.7 239.05 168.0 238.65 168.3 238.3 168.8 238.05 L169.95 237.85 170.95 238.05 171.75 238.55 172.25 239.35 172.45 240.45 172.35 241.0 172.1 241.5 171.55 242.05 172.0 242.3 172.4 242.4 172.75 242.45 173.25 242.35 173.75 242.0 174.2 241.35 174.35 240.5 174.25 239.6 173.9 238.75 173.1 237.75 171.75 236.5 170.25 235.05 169.15 233.55 168.45 231.95 168.25 230.05 Q168.25 229.05 168.65 228.15 169.05 227.2 169.75 226.5 170.5 225.75 171.55 225.3 L173.9 224.9 176.15 225.3 Q177.1 225.7 177.7 226.4 178.35 227.05 178.65 227.95 L178.95 229.8 M191.15 233.9 L192.05 233.95 192.95 233.95 195.65 233.85 195.85 231.6 195.95 229.2 Q195.95 226.5 195.4 225.1 194.8 223.7 193.75 223.7 193.15 223.7 192.65 224.1 192.15 224.55 191.8 225.4 191.4 226.3 191.2 227.65 L191.0 230.8 191.05 232.2 191.15 233.9" fill="#1f262a" fill-rule="evenodd" stroke="none"/>
    <path d="M141.0 219.85 L140.85 223.4 140.7 226.45 140.6 229.2 140.55 231.75 140.55 234.3 140.5 237.0 140.5 240.35 140.55 244.3 137.0 244.2 137.15 239.55 137.15 234.85 137.15 231.55 137.1 228.05 137.05 224.1 136.95 219.8 141.0 219.85 M128.25 244.55 L124.05 244.85 124.45 239.45 124.55 234.25 124.5 230.55 124.3 226.75 127.8 226.55 127.8 227.25 127.75 227.85 Q128.3 227.05 128.95 226.55 L130.15 225.85 131.45 225.55 Q132.6 225.55 133.4 225.9 134.25 226.25 134.75 226.8 L135.5 228.05 135.75 229.35 135.6 230.65 135.1 231.9 134.25 232.75 132.85 233.1 131.55 232.8 130.85 232.1 130.55 231.25 130.5 230.45 130.55 230.0 130.8 229.4 131.2 228.85 131.75 228.35 131.55 228.3 131.35 228.3 Q130.55 228.3 129.95 228.8 129.35 229.3 128.9 230.15 128.45 231.05 128.15 232.2 L127.75 234.8 127.95 239.6 128.25 244.55 M118.75 244.55 L118.55 243.55 118.45 242.55 116.7 244.15 Q115.7 244.75 114.55 244.75 L113.3 244.55 Q112.65 244.35 112.15 243.85 L111.25 242.55 Q110.9 241.7 110.9 240.4 110.9 239.35 111.25 238.55 111.55 237.8 112.05 237.2 L113.15 236.15 114.4 235.35 115.6 234.75 116.5 234.15 117.7 233.0 118.55 231.7 118.3 229.9 117.9 228.8 117.25 228.25 116.35 228.05 Q115.65 228.05 115.15 228.35 L114.35 229.1 Q114.75 229.35 114.95 229.65 L115.25 230.2 115.4 230.8 Q115.4 231.85 114.8 232.45 114.2 233.0 113.25 233.0 L112.4 232.8 Q111.95 232.55 111.65 232.15 L111.2 231.15 111.0 229.95 Q111.0 229.3 111.3 228.55 111.6 227.8 112.25 227.2 112.9 226.55 113.95 226.15 L116.45 225.75 Q117.9 225.75 118.95 226.3 120.0 226.85 120.7 227.8 121.35 228.75 121.65 230.0 L121.95 232.55 121.95 234.7 121.95 237.05 121.95 239.1 122.0 241.05 122.15 242.85 122.35 244.3 118.75 244.55 M166.6 229.8 L166.3 231.05 165.65 231.85 164.9 232.3 164.2 232.45 163.55 232.35 162.8 232.0 162.2 231.3 161.95 230.15 Q161.95 229.75 162.1 229.4 L162.4 228.75 163.05 228.15 162.5 227.55 162.0 227.2 Q161.75 227.05 161.5 227.05 L160.65 227.25 Q160.25 227.45 160.0 227.75 L159.55 228.5 Q159.4 228.9 159.4 229.35 L159.5 230.4 159.85 231.35 160.7 232.4 162.2 233.75 163.9 235.2 165.1 236.6 165.8 238.0 166.05 239.4 165.95 240.5 165.6 241.7 164.95 242.85 163.95 243.85 162.6 244.55 160.8 244.8 158.15 244.35 Q157.1 243.9 156.4 243.25 L155.4 241.85 Q155.05 241.15 155.05 240.6 155.05 240.05 155.2 239.55 L155.65 238.65 156.45 238.05 157.6 237.85 158.6 238.05 159.4 238.55 159.9 239.35 160.1 240.45 160.0 241.0 159.75 241.5 159.2 242.05 159.65 242.3 160.05 242.4 160.4 242.45 160.9 242.35 161.4 242.0 161.85 241.35 162.0 240.5 161.9 239.6 161.55 238.75 160.75 237.75 159.4 236.5 157.9 235.05 156.8 233.55 156.1 231.95 155.9 230.05 Q155.9 229.05 156.3 228.15 156.7 227.2 157.4 226.5 158.15 225.75 159.2 225.3 L161.55 224.9 Q162.85 224.9 163.8 225.3 L165.35 226.4 166.3 227.95 166.6 229.8 M154.1 240.55 Q154.1 241.45 153.7 242.3 L152.55 243.7 Q151.8 244.3 150.85 244.6 L148.8 244.95 147.3 244.75 145.85 244.1 144.55 242.85 Q143.95 242.1 143.5 241.0 L142.8 238.4 Q142.55 236.9 142.55 234.95 142.55 233.1 142.8 231.7 143.05 230.3 143.5 229.25 143.95 228.2 144.55 227.5 L145.85 226.35 Q146.5 225.9 147.25 225.7 L148.65 225.55 150.65 225.85 152.3 226.85 Q153.0 227.5 153.4 228.5 153.8 229.45 153.8 230.7 L153.35 232.95 152.0 235.15 149.75 237.0 146.7 238.3 Q146.75 239.3 146.95 240.05 L147.4 241.45 148.05 242.3 148.9 242.6 149.5 242.5 150.0 242.25 150.45 241.75 149.8 241.3 149.5 240.7 149.35 240.05 Q149.35 239.3 149.65 238.85 L150.35 238.1 Q150.75 237.85 151.15 237.75 L151.85 237.65 152.5 237.75 153.25 238.15 153.85 239.05 154.1 240.55 M150.25 230.7 L150.15 229.65 149.85 228.75 149.35 228.15 148.7 227.95 Q148.05 227.95 147.65 228.55 147.25 229.1 147.0 230.05 146.75 231.05 146.65 232.3 L146.55 234.95 146.55 236.1 148.05 235.1 149.2 233.8 150.0 232.35 150.25 230.7 M97.3 224.7 L94.15 224.5 91.8 224.4 91.1 224.4 90.5 224.45 90.5 230.6 92.45 230.5 93.9 230.35 95.15 230.2 95.15 230.45 95.1 230.75 95.1 231.15 95.15 232.35 95.25 233.8 92.4 233.55 90.55 233.5 90.65 238.55 90.85 241.9 91.05 244.35 90.35 244.3 89.55 244.25 88.4 244.3 87.4 244.35 86.4 244.4 86.6 242.3 86.7 240.2 86.85 238.25 86.9 236.45 87.0 232.65 86.9 228.8 86.85 227.05 86.7 225.15 86.6 223.2 86.4 221.3 89.9 221.45 92.6 221.45 94.65 221.45 96.05 221.4 97.15 221.3 97.15 221.6 97.15 222.35 97.2 223.45 97.3 224.7 M109.65 240.55 Q109.65 241.45 109.25 242.3 L108.1 243.7 106.4 244.6 104.35 244.95 102.85 244.75 101.4 244.1 100.1 242.85 99.05 241.0 98.35 238.4 Q98.1 236.9 98.1 234.95 98.1 233.1 98.35 231.7 98.6 230.3 99.05 229.25 99.5 228.2 100.1 227.5 L101.4 226.35 Q102.05 225.9 102.8 225.7 L104.2 225.55 106.2 225.85 Q107.15 226.2 107.85 226.85 108.55 227.5 108.95 228.5 109.35 229.45 109.35 230.7 L108.9 232.95 107.55 235.15 105.3 237.0 102.25 238.3 Q102.3 239.3 102.5 240.05 L102.95 241.45 103.6 242.3 104.45 242.6 105.05 242.5 105.55 242.25 106.0 241.75 105.35 241.3 105.05 240.7 104.9 240.05 Q104.9 239.3 105.2 238.85 L105.9 238.1 Q106.3 237.85 106.7 237.75 L107.4 237.65 108.05 237.75 108.8 238.15 109.4 239.05 109.65 240.55 M105.8 230.7 L105.7 229.65 105.4 228.75 104.9 228.15 104.25 227.95 Q103.6 227.95 103.2 228.55 102.8 229.1 102.55 230.05 102.3 231.05 102.2 232.3 L102.1 234.95 102.1 236.1 103.6 235.1 104.75 233.8 105.55 232.35 105.8 230.7 M118.5 235.4 L117.35 236.5 116.35 237.25 115.35 238.1 114.55 239.05 Q114.25 239.55 114.25 240.05 114.25 240.75 114.6 241.25 114.95 241.75 115.55 241.75 L116.6 241.45 117.4 240.7 118.0 239.7 118.4 238.7 118.5 235.4 M57.05 220.1 L56.8 224.15 56.6 228.2 Q57.15 227.15 57.85 226.6 58.5 226.0 59.1 225.75 L60.5 225.35 Q61.6 225.35 62.4 225.9 63.2 226.45 63.75 227.5 L64.5 229.95 64.7 233.1 64.5 238.85 Q64.3 241.6 63.7 244.2 L60.05 243.8 60.6 240.3 60.9 237.5 61.0 234.9 61.0 232.35 60.75 230.5 60.2 229.4 Q59.8 229.05 59.15 229.05 L58.15 229.7 57.7 230.3 57.25 231.15 56.8 232.4 56.45 234.0 56.4 237.2 56.4 240.3 56.4 242.3 56.45 244.3 52.9 244.2 53.15 238.5 53.25 232.75 53.1 226.4 52.8 220.05 57.05 220.1 M48.0 244.15 L47.6 244.15 45.75 244.25 43.9 244.55 44.2 238.1 44.3 232.2 44.1 225.05 40.2 225.3 40.15 224.35 40.1 223.5 40.05 222.65 39.9 221.65 41.8 221.65 44.25 221.65 46.65 221.6 49.1 221.55 51.6 221.4 51.5 222.75 51.5 223.9 51.5 224.75 47.65 224.8 47.6 227.8 47.6 230.7 47.7 237.45 48.0 244.15 M77.95 240.55 Q77.95 241.45 77.55 242.3 L76.4 243.7 Q75.65 244.3 74.7 244.6 L72.65 244.95 71.15 244.75 69.7 244.1 68.4 242.85 Q67.8 242.1 67.35 241.0 L66.65 238.4 Q66.4 236.9 66.4 234.95 66.4 233.1 66.65 231.7 66.9 230.3 67.35 229.25 67.8 228.2 68.4 227.5 L69.7 226.35 71.1 225.7 72.5 225.55 74.5 225.85 Q75.45 226.2 76.15 226.85 76.85 227.5 77.25 228.5 77.65 229.45 77.65 230.7 L77.2 232.95 75.85 235.15 73.6 237.0 Q72.25 237.8 70.55 238.3 70.6 239.3 70.8 240.05 L71.25 241.45 71.9 242.3 Q72.25 242.6 72.75 242.6 L73.35 242.5 73.85 242.25 74.3 241.75 73.65 241.3 73.35 240.7 73.2 240.05 Q73.2 239.3 73.5 238.85 L74.2 238.1 75.0 237.75 75.7 237.65 76.35 237.75 Q76.7 237.85 77.1 238.15 L77.7 239.05 77.95 240.55 M74.1 230.7 L74.0 229.65 73.7 228.75 73.2 228.15 72.55 227.95 Q71.9 227.95 71.5 228.55 71.1 229.1 70.85 230.05 70.6 231.05 70.5 232.3 L70.4 234.95 70.4 236.1 71.9 235.1 73.05 233.8 73.85 232.35 74.1 230.7 M302.85 240.55 Q302.85 241.45 302.45 242.3 L301.3 243.7 Q300.55 244.3 299.6 244.6 L297.55 244.95 296.05 244.75 294.6 244.1 293.3 242.85 Q292.7 242.1 292.25 241.0 L291.55 238.4 Q291.3 236.9 291.3 234.95 291.3 233.1 291.55 231.7 291.8 230.3 292.25 229.25 292.7 228.2 293.3 227.5 L294.6 226.35 Q295.25 225.9 296.0 225.7 L297.4 225.55 299.4 225.85 301.05 226.85 Q301.75 227.5 302.15 228.5 302.55 229.45 302.55 230.7 L302.1 232.95 300.75 235.15 298.5 237.0 295.45 238.3 Q295.5 239.3 295.7 240.05 L296.15 241.45 296.8 242.3 297.65 242.6 298.25 242.5 298.75 242.25 299.2 241.75 298.55 241.3 298.25 240.7 298.1 240.05 Q298.1 239.3 298.4 238.85 L299.1 238.1 299.9 237.75 300.6 237.65 301.25 237.75 302.0 238.15 302.6 239.05 302.85 240.55 M299.0 230.7 L298.9 229.65 298.6 228.75 298.1 228.15 297.45 227.95 Q296.8 227.95 296.4 228.55 296.0 229.1 295.75 230.05 295.5 231.05 295.4 232.3 L295.3 234.95 295.3 236.1 296.8 235.1 297.95 233.8 298.75 232.35 299.0 230.7 M283.0 244.55 L278.8 244.85 279.2 239.45 279.3 234.25 279.25 230.55 279.05 226.75 282.55 226.55 282.55 227.25 282.5 227.85 Q283.05 227.05 283.7 226.55 284.35 226.05 284.9 225.85 L286.2 225.55 Q287.35 225.55 288.15 225.9 289.0 226.25 289.5 226.8 L290.25 228.05 290.5 229.35 290.35 230.65 289.85 231.9 289.0 232.75 287.6 233.1 286.3 232.8 285.6 232.1 285.3 231.25 285.25 230.45 285.3 230.0 285.55 229.4 285.95 228.85 286.5 228.35 286.3 228.3 286.1 228.3 Q285.3 228.3 284.7 228.8 284.1 229.3 283.65 230.15 283.2 231.05 282.9 232.2 L282.5 234.8 282.7 239.6 283.0 244.55 M261.3 220.15 L261.1 223.3 260.95 226.45 262.3 226.4 263.7 226.3 263.75 230.3 262.25 230.1 260.8 230.0 260.8 232.6 260.75 235.25 260.8 239.95 261.0 244.65 256.9 244.6 257.25 237.3 257.45 229.9 256.1 229.95 254.8 230.05 254.9 226.35 256.2 226.4 257.45 226.45 257.4 223.35 257.35 220.2 261.3 220.15 M245.9 226.6 L245.85 227.85 Q246.35 227.0 246.95 226.55 L248.0 225.9 248.85 225.7 249.2 225.7 Q250.35 225.7 251.25 226.25 252.1 226.75 252.65 227.8 L253.5 230.25 253.75 233.5 253.75 236.25 253.6 239.05 253.25 241.7 252.75 244.2 249.1 243.8 249.65 240.3 249.95 237.5 250.1 234.9 250.0 232.35 249.65 230.5 249.0 229.4 Q248.55 229.05 247.9 229.05 L247.05 229.7 Q246.65 230.15 246.25 231.15 245.8 232.1 245.5 233.9 L245.45 236.35 245.45 238.85 245.45 241.3 245.45 244.3 241.9 244.2 242.0 240.85 242.0 236.85 242.0 232.15 241.85 226.55 245.9 226.6 M272.7 244.05 L272.8 242.85 272.85 241.75 271.75 243.2 270.6 243.95 269.4 244.3 Q268.25 244.3 267.4 243.7 266.55 243.15 266.0 242.05 265.4 241.0 265.15 239.55 264.85 238.05 264.85 236.2 L265.05 231.2 Q265.2 228.75 265.6 226.45 L269.55 226.85 269.0 230.2 268.7 232.7 268.55 234.8 268.65 237.35 Q268.75 238.45 269.0 239.2 269.25 239.9 269.65 240.3 270.1 240.65 270.75 240.65 L271.6 240.0 272.0 239.4 272.4 238.5 272.8 237.25 273.15 235.6 273.2 233.75 273.2 231.8 273.2 229.3 273.15 226.35 276.7 226.4 276.6 228.6 276.55 230.5 276.5 232.15 276.45 233.65 276.5 235.85 276.55 238.15 276.65 240.8 276.8 244.1 272.7 244.05 M214.05 220.45 Q213.7 225.0 213.5 229.5 L213.3 238.55 213.4 244.65 209.85 244.75 209.95 241.65 208.65 243.45 207.45 244.35 206.2 244.8 204.6 244.35 Q203.75 243.9 203.1 242.8 202.45 241.65 202.05 239.8 201.6 237.95 201.6 235.15 201.6 233.3 201.85 231.9 L202.45 229.45 Q202.8 228.4 203.3 227.7 L204.4 226.55 Q205.0 226.1 205.65 225.9 L206.9 225.75 207.8 225.95 208.75 226.4 209.8 227.3 209.5 220.4 214.05 220.45 M228.05 226.55 L226.65 231.05 225.4 235.45 224.3 239.85 223.35 244.45 218.85 244.55 218.0 240.05 217.1 235.7 216.05 231.35 214.9 226.85 219.4 226.65 220.2 233.5 221.25 240.3 222.5 233.4 223.2 226.5 228.05 226.55 M210.0 236.4 L209.9 230.35 209.55 229.85 209.1 229.35 208.6 229.0 208.05 228.85 Q207.6 228.85 207.2 229.15 L206.35 230.2 Q206.0 230.95 205.8 232.2 205.55 233.4 205.55 235.3 205.55 237.05 205.7 238.15 205.85 239.3 206.15 240.0 L206.75 240.95 207.5 241.2 Q208.05 241.2 208.5 240.8 L209.25 239.85 209.7 238.7 210.0 237.65 210.0 236.4 M240.1 240.55 Q240.1 241.45 239.7 242.3 L238.55 243.7 236.85 244.6 234.8 244.95 233.3 244.75 231.85 244.1 230.55 242.85 Q229.95 242.1 229.5 241.0 L228.8 238.4 Q228.55 236.9 228.55 234.95 228.55 233.1 228.8 231.7 229.05 230.3 229.5 229.25 229.95 228.2 230.55 227.5 L231.85 226.35 Q232.5 225.9 233.25 225.7 L234.65 225.55 236.65 225.85 238.3 226.85 Q239.0 227.5 239.4 228.5 239.8 229.45 239.8 230.7 L239.35 232.95 238.0 235.15 Q237.1 236.15 235.75 237.0 234.4 237.8 232.7 238.3 232.75 239.3 232.95 240.05 L233.4 241.45 234.05 242.3 Q234.4 242.6 234.9 242.6 L235.5 242.5 236.0 242.25 236.45 241.75 235.8 241.3 235.5 240.7 235.35 240.05 Q235.35 239.3 235.65 238.85 L236.35 238.1 Q236.75 237.85 237.15 237.75 L237.85 237.65 238.5 237.75 239.25 238.15 239.85 239.05 240.1 240.55 M236.25 230.7 L236.15 229.65 235.85 228.75 235.35 228.15 234.7 227.95 Q234.05 227.95 233.65 228.55 233.25 229.1 233.0 230.05 232.75 231.05 232.65 232.3 L232.55 234.95 232.55 236.1 234.05 235.1 235.2 233.8 236.0 232.35 236.25 230.7 M187.55 242.05 L187.5 239.65 187.4 237.25 187.3 234.8 187.25 232.3 187.3 229.6 Q187.4 228.25 187.65 226.95 L188.35 224.55 Q188.75 223.45 189.5 222.6 190.2 221.8 191.2 221.3 192.2 220.8 193.6 220.8 194.9 220.8 195.85 221.25 196.85 221.65 197.5 222.35 L198.65 224.05 199.3 226.15 199.65 228.5 199.75 230.9 199.75 231.45 199.7 232.0 199.7 232.6 199.6 233.6 199.55 235.05 199.45 237.25 199.35 240.25 199.25 244.3 194.55 244.15 195.05 240.6 195.4 237.25 193.15 237.15 192.15 237.15 191.3 237.2 191.45 238.95 191.55 240.75 191.75 242.6 191.95 244.3 187.55 244.4 187.55 243.25 187.55 242.05 M178.95 229.8 L178.65 231.05 178.0 231.85 177.25 232.3 176.55 232.45 175.9 232.35 175.15 232.0 174.55 231.3 Q174.3 230.8 174.3 230.15 174.3 229.75 174.45 229.4 L174.75 228.75 175.4 228.15 174.85 227.55 174.35 227.2 173.85 227.05 173.0 227.25 172.35 227.75 Q172.05 228.05 171.9 228.5 171.75 228.9 171.75 229.35 L171.85 230.4 172.2 231.35 173.05 232.4 174.55 233.75 176.25 235.2 177.45 236.6 178.15 238.0 178.4 239.4 178.3 240.5 177.95 241.7 177.3 242.85 176.3 243.85 Q175.7 244.3 174.95 244.55 L173.15 244.8 170.5 244.35 Q169.45 243.9 168.75 243.25 L167.75 241.85 Q167.4 241.15 167.4 240.6 167.4 240.05 167.55 239.55 167.7 239.05 168.0 238.65 168.3 238.3 168.8 238.05 L169.95 237.85 170.95 238.05 171.75 238.55 172.25 239.35 172.45 240.45 172.35 241.0 172.1 241.5 171.55 242.05 172.0 242.3 172.4 242.4 172.75 242.45 173.25 242.35 173.75 242.0 174.2 241.35 174.35 240.5 174.25 239.6 173.9 238.75 173.1 237.75 171.75 236.5 170.25 235.05 169.15 233.55 168.45 231.95 168.25 230.05 Q168.25 229.05 168.65 228.15 169.05 227.2 169.75 226.5 170.5 225.75 171.55 225.3 L173.9 224.9 176.15 225.3 Q177.1 225.7 177.7 226.4 178.35 227.05 178.65 227.95 L178.95 229.8 M191.15 233.9 L192.05 233.95 192.95 233.95 195.65 233.85 195.85 231.6 195.95 229.2 Q195.95 226.5 195.4 225.1 194.8 223.7 193.75 223.7 193.15 223.7 192.65 224.1 192.15 224.55 191.8 225.4 191.4 226.3 191.2 227.65 L191.0 230.8 191.05 232.2 191.15 233.9" fill="none" stroke="#313131" stroke-linecap="round" stroke-linejoin="round" stroke-width="5.0"/>
    <path d="M217.6 185.15 Q217.6 189.15 216.85 192.6 216.1 196.1 214.6 198.7 213.15 201.3 211.0 202.85 208.8 204.3 205.95 204.3 203.05 204.3 200.9 202.85 198.7 201.3 197.25 198.7 195.8 196.1 195.05 192.6 194.3 189.15 194.3 185.15 194.3 181.2 195.05 177.7 195.75 174.2 197.2 171.6 198.65 169.05 200.8 167.55 203.0 166.0 205.95 166.0 209.0 166.0 211.2 167.55 213.4 169.05 214.8 171.6 216.25 174.2 216.9 177.7 217.6 181.2 217.6 185.15 M181.35 165.6 L180.5 180.05 Q180.2 187.2 180.2 194.5 L180.35 204.2 174.65 204.3 174.85 199.4 172.8 202.25 170.9 203.75 168.85 204.4 Q167.6 204.4 166.3 203.7 165.0 203.0 163.95 201.2 162.9 199.45 162.25 196.5 161.55 193.55 161.55 189.1 161.55 186.15 161.9 183.9 162.25 181.65 162.85 179.95 163.45 178.3 164.3 177.2 165.1 176.05 166.05 175.35 166.95 174.65 167.95 174.35 L170.0 174.05 171.45 174.35 172.95 175.1 174.6 176.55 174.15 165.5 181.35 165.6 M174.95 191.05 L174.8 181.45 174.2 180.6 173.5 179.85 172.75 179.25 171.85 179.0 Q171.15 179.0 170.45 179.5 169.7 180.0 169.15 181.2 168.55 182.35 168.2 184.3 167.85 186.3 167.85 189.3 167.85 192.05 168.1 193.85 168.35 195.7 168.75 196.75 169.2 197.85 169.75 198.3 170.3 198.7 170.9 198.7 171.85 198.7 172.55 198.1 L173.7 196.55 174.45 194.7 174.95 193.05 174.95 191.05 M211.05 185.15 L210.8 179.35 Q210.55 176.6 210.0 174.6 209.4 172.55 208.4 171.35 207.4 170.2 205.95 170.2 204.55 170.2 203.55 171.35 202.6 172.55 202.0 174.6 201.4 176.6 201.1 179.35 200.85 182.05 200.85 185.15 200.85 188.25 201.1 191.0 201.4 193.7 202.0 195.75 202.6 197.75 203.6 198.95 204.55 200.15 205.95 200.15 207.3 200.15 208.3 198.95 209.25 197.75 209.9 195.75 L210.8 191.0 211.05 185.15 M237.75 180.55 Q237.75 181.7 237.3 182.5 L236.3 183.8 235.05 184.5 233.95 184.75 232.85 184.6 Q232.25 184.4 231.7 184.0 231.15 183.6 230.75 182.9 230.35 182.15 230.35 181.05 L230.55 179.9 231.1 178.85 Q231.45 178.3 232.1 177.9 L231.25 176.9 230.45 176.4 229.65 176.15 228.25 176.45 Q227.65 176.75 227.2 177.3 226.75 177.75 226.55 178.45 226.3 179.1 226.3 179.85 L226.4 181.5 227.0 183.05 228.35 184.7 230.8 186.8 233.45 189.15 235.35 191.35 236.5 193.55 Q236.85 194.65 236.85 195.85 L236.7 197.6 236.15 199.5 235.15 201.35 233.55 202.9 231.4 204.0 228.5 204.4 Q226.05 204.4 224.35 203.7 222.6 203.0 221.5 201.95 220.4 200.9 219.9 199.75 219.35 198.6 219.35 197.75 219.35 196.8 219.6 196.05 219.8 195.25 220.3 194.65 220.8 194.05 221.55 193.7 222.3 193.35 223.4 193.35 L225.05 193.65 226.3 194.45 227.1 195.75 227.4 197.5 227.25 198.35 226.8 199.2 226.0 200.05 226.7 200.45 227.3 200.65 227.9 200.7 228.65 200.55 229.5 199.95 230.15 198.95 230.45 197.6 230.3 196.15 229.75 194.8 228.45 193.2 226.3 191.15 223.9 188.85 222.15 186.5 Q221.45 185.25 221.05 183.9 220.7 182.6 220.7 180.95 220.7 179.35 221.35 177.85 221.95 176.4 223.15 175.25 224.3 174.05 225.95 173.4 227.65 172.7 229.7 172.7 231.8 172.7 233.3 173.35 234.85 174.0 235.8 175.1 236.8 176.15 237.25 177.55 237.75 179.0 237.75 180.55 M258.5 181.85 Q258.5 183.55 258.05 184.55 L256.95 186.1 Q256.3 186.6 255.65 186.75 L254.55 186.9 253.55 186.75 252.4 186.2 Q251.8 185.8 251.45 185.05 251.05 184.25 251.05 183.05 L251.3 181.75 251.9 180.6 Q252.3 180.05 253.05 179.65 L252.1 178.2 251.15 177.45 250.05 177.1 Q249.1 177.1 248.35 177.95 247.6 178.8 247.1 180.35 246.55 181.85 246.3 184.0 246.0 186.15 246.0 188.75 L246.2 193.55 Q246.35 195.75 246.8 197.4 247.2 199.05 247.95 200.0 248.65 200.95 249.75 200.95 L250.9 200.7 251.95 200.05 252.95 198.7 251.6 197.7 250.95 196.5 250.7 195.1 Q250.7 193.9 251.15 193.15 251.6 192.4 252.25 192.0 252.9 191.55 253.6 191.4 L254.65 191.2 255.7 191.4 256.9 192.05 Q257.5 192.55 257.9 193.5 258.3 194.4 258.3 195.85 258.3 197.3 257.6 198.9 256.9 200.45 255.7 201.75 254.45 203.05 252.9 203.85 251.3 204.7 249.55 204.7 L247.2 204.35 Q246.0 204.05 244.9 203.3 L242.85 201.35 Q241.85 200.1 241.15 198.35 240.45 196.6 240.05 194.2 239.6 191.8 239.6 188.75 239.6 185.65 240.05 183.35 240.5 181.0 241.3 179.3 242.1 177.65 243.1 176.55 244.15 175.45 245.3 174.8 246.45 174.15 247.65 173.9 L250.05 173.65 Q251.7 173.65 253.25 174.3 254.8 174.95 256.0 176.05 257.15 177.15 257.8 178.65 258.5 180.15 258.5 181.85 M272.85 204.0 L272.6 202.45 272.4 200.8 Q271.25 202.5 269.65 203.4 268.05 204.3 266.15 204.3 L264.2 204.0 262.35 202.95 Q261.5 202.15 260.95 200.85 260.4 199.5 260.4 197.45 260.4 195.75 260.9 194.5 261.4 193.25 262.2 192.3 L264.0 190.65 Q265.0 189.95 266.0 189.4 266.95 188.85 267.85 188.4 L269.35 187.45 271.25 185.6 272.55 183.55 272.2 180.7 Q271.95 179.6 271.5 178.95 271.1 178.25 270.5 178.0 L269.1 177.75 Q267.95 177.75 267.15 178.25 L265.85 179.45 266.85 180.3 267.35 181.15 267.55 182.15 Q267.55 183.85 266.6 184.7 265.65 185.6 264.15 185.6 L262.75 185.25 261.6 184.25 260.85 182.7 Q260.55 181.8 260.55 180.75 260.55 179.7 261.05 178.55 261.5 177.4 262.55 176.4 263.6 175.35 265.25 174.7 266.9 174.05 269.25 174.05 271.6 174.05 273.25 174.95 274.9 175.85 276.0 177.4 277.05 178.85 277.55 180.85 278.05 182.8 278.05 184.9 L278.0 188.3 278.0 192.1 278.0 195.35 278.1 198.45 278.3 201.3 278.6 203.65 272.85 204.0 M288.0 204.0 L281.35 204.5 281.95 195.95 282.15 187.6 282.05 181.75 281.75 175.65 287.35 175.35 287.25 176.45 287.25 177.45 Q288.1 176.1 289.15 175.35 290.2 174.6 291.1 174.25 292.1 173.8 293.15 173.7 294.95 173.7 296.25 174.3 297.55 174.85 298.4 175.75 299.2 176.6 299.55 177.7 299.95 178.75 299.95 179.8 L299.7 181.9 299.0 183.85 297.55 185.25 Q296.65 185.75 295.35 185.75 L293.3 185.3 Q292.6 184.8 292.2 184.15 291.8 183.5 291.7 182.8 L291.6 181.6 291.7 180.8 292.1 179.9 292.7 179.05 293.55 178.2 293.25 178.15 292.95 178.1 Q291.7 178.1 290.75 178.9 289.75 179.7 289.05 181.1 288.35 182.5 287.9 184.35 287.4 186.25 287.2 188.5 L287.55 196.15 288.0 204.0 M272.5 189.45 L270.65 191.2 269.05 192.4 267.45 193.75 266.2 195.3 Q265.75 196.05 265.75 196.85 265.75 198.0 266.25 198.8 266.8 199.6 267.8 199.6 268.75 199.6 269.45 199.1 L270.75 197.85 271.7 196.3 272.3 194.75 272.5 189.45 M20.25 194.45 Q20.0 197.25 19.0 199.1 17.95 200.95 16.45 202.1 14.95 203.15 13.15 203.6 L9.55 204.05 5.95 203.55 Q4.25 203.05 2.9 202.05 1.6 201.0 0.8 199.45 0.0 197.9 0.0 195.85 0.0 194.25 0.5 193.2 1.0 192.1 1.7 191.45 2.45 190.8 3.25 190.55 L4.8 190.3 6.25 190.5 7.7 191.25 Q8.35 191.8 8.75 192.7 9.15 193.55 9.15 194.9 L9.15 195.35 8.85 196.35 8.1 197.45 Q7.55 197.95 6.6 198.2 7.3 199.05 8.25 199.5 L9.8 199.95 11.3 199.7 Q12.1 199.5 12.85 198.95 L14.1 197.55 Q14.6 196.65 14.6 195.3 14.6 193.75 14.1 192.5 L12.7 190.35 10.85 188.75 8.85 187.45 7.3 186.55 5.4 185.35 3.5 183.75 1.8 181.65 Q1.05 180.5 0.6 179.05 0.1 177.65 0.1 175.95 0.1 173.35 1.0 171.45 1.9 169.5 3.35 168.2 4.8 166.9 6.6 166.25 8.4 165.6 10.3 165.6 12.15 165.6 13.85 166.15 15.55 166.65 16.85 167.6 18.1 168.55 18.85 169.9 19.6 171.2 19.6 172.85 19.6 174.55 19.05 175.5 18.5 176.5 17.8 177.0 17.0 177.5 16.25 177.6 L14.95 177.75 13.7 177.5 Q13.05 177.3 12.55 176.85 L11.65 175.75 Q11.3 175.1 11.3 174.25 L11.45 173.15 11.7 172.1 12.3 171.1 Q11.9 170.75 11.55 170.55 L10.85 170.25 10.15 170.1 8.75 170.35 Q8.0 170.6 7.45 171.1 L6.45 172.35 Q6.1 173.1 6.1 174.15 6.1 175.35 6.45 176.3 L7.65 178.15 9.7 179.95 12.6 182.0 16.1 184.5 18.5 187.15 Q19.4 188.5 19.85 190.0 20.3 191.45 20.3 193.15 L20.3 193.8 20.25 194.45 M40.75 197.65 Q40.75 199.1 40.1 200.4 39.45 201.7 38.3 202.65 37.15 203.6 35.6 204.15 L32.3 204.7 29.95 204.35 Q28.75 204.05 27.65 203.3 L25.6 201.35 Q24.6 200.1 23.9 198.35 23.2 196.6 22.8 194.2 22.35 191.8 22.35 188.75 22.35 185.8 22.8 183.6 23.2 181.35 23.9 179.65 24.6 178.0 25.55 176.9 26.5 175.75 27.6 175.05 28.65 174.3 29.85 174.0 L32.1 173.7 Q33.8 173.7 35.25 174.25 36.75 174.8 37.9 175.85 39.0 176.9 39.7 178.4 40.35 179.95 40.35 181.95 40.35 183.75 39.6 185.55 38.85 187.4 37.4 189.05 L33.85 192.0 Q31.7 193.3 28.95 194.1 29.1 195.65 29.4 196.9 L30.1 199.05 Q30.55 199.95 31.15 200.45 31.7 200.95 32.5 200.95 L33.45 200.8 34.25 200.4 34.9 199.6 Q34.25 199.3 33.95 198.8 L33.4 197.9 33.2 196.85 Q33.2 195.7 33.65 194.95 L34.75 193.75 Q35.4 193.35 36.1 193.2 L37.15 193.0 38.2 193.2 Q38.8 193.35 39.4 193.85 L40.4 195.3 Q40.75 196.2 40.75 197.65 M34.6 182.0 L34.45 180.3 34.0 178.85 33.25 177.9 Q32.75 177.55 32.15 177.55 31.15 177.55 30.5 178.5 29.85 179.4 29.45 180.95 29.05 182.5 28.9 184.5 28.75 186.55 28.75 188.75 L28.75 190.55 Q30.0 189.9 31.1 188.95 L33.0 186.95 34.2 184.55 Q34.6 183.35 34.6 182.0 M50.0 175.4 L49.85 177.45 Q50.7 176.1 51.65 175.35 52.55 174.65 53.35 174.35 54.15 174.05 54.7 174.0 L55.25 174.0 Q57.1 174.0 58.5 174.85 59.85 175.7 60.75 177.3 61.65 178.9 62.1 181.2 62.5 183.5 62.5 186.4 L62.45 190.8 62.2 195.25 61.7 199.5 60.85 203.5 55.05 202.8 55.95 197.25 56.45 192.8 56.65 188.7 56.5 184.55 55.95 181.65 Q55.55 180.5 54.9 179.9 54.25 179.35 53.2 179.35 52.5 179.5 51.8 180.35 51.2 181.05 50.5 182.65 49.85 184.2 49.35 187.1 L49.25 190.95 49.25 195.0 49.25 198.9 49.3 203.6 43.65 203.5 43.75 198.1 43.8 191.75 43.75 184.25 43.55 175.3 50.0 175.4 M84.85 176.15 L84.6 179.1 84.45 182.1 84.25 185.0 84.15 187.7 83.95 193.4 Q83.8 196.35 83.8 199.25 L83.6 204.7 82.95 209.55 Q82.45 211.75 81.35 213.4 80.25 215.05 78.4 215.95 76.55 216.85 73.65 216.85 71.45 216.85 70.15 216.25 L68.15 214.7 Q67.45 213.8 67.25 212.75 L67.0 210.95 Q67.0 210.1 67.3 209.4 L68.0 208.1 69.2 207.2 70.7 206.9 Q71.65 206.9 72.35 207.25 L73.6 208.15 74.3 209.4 74.55 210.8 74.4 211.6 73.95 212.4 73.1 213.25 73.65 213.45 74.15 213.45 75.55 213.1 76.8 211.85 77.8 209.8 Q78.2 208.55 78.25 206.85 L78.3 203.15 78.35 199.2 Q77.5 200.85 76.55 201.75 L74.7 203.0 Q73.7 203.5 72.65 203.6 70.8 203.6 69.45 202.7 68.1 201.8 67.2 200.1 66.3 198.4 65.85 196.05 65.4 193.65 65.4 190.7 65.4 182.55 66.55 175.15 L72.85 175.85 72.5 177.65 72.15 179.65 71.9 181.8 71.65 183.8 71.3 188.45 Q71.3 190.8 71.45 192.6 71.6 194.35 72.0 195.5 72.35 196.65 73.05 197.2 73.7 197.8 74.75 197.8 75.5 197.65 76.2 196.75 L76.8 195.75 77.45 194.3 78.1 192.25 78.65 189.5 78.75 185.95 78.8 182.85 78.7 179.45 78.5 176.05 84.85 176.15 M99.8 204.0 L99.55 202.45 99.35 200.8 Q98.2 202.5 96.6 203.4 95.0 204.3 93.1 204.3 L91.15 204.0 89.3 202.95 Q88.45 202.15 87.9 200.85 87.35 199.5 87.35 197.45 87.35 195.75 87.85 194.5 88.35 193.25 89.15 192.3 L90.95 190.65 Q91.95 189.95 92.95 189.4 L94.8 188.4 96.3 187.45 98.2 185.6 99.5 183.55 99.15 180.7 98.45 178.95 Q98.05 178.25 97.45 178.0 L96.05 177.75 Q94.9 177.75 94.1 178.25 93.3 178.75 92.8 179.45 L93.8 180.3 94.3 181.15 94.5 182.15 Q94.5 183.85 93.55 184.7 92.6 185.6 91.1 185.6 90.35 185.6 89.7 185.25 L88.55 184.25 Q88.05 183.6 87.8 182.7 87.5 181.8 87.5 180.75 87.5 179.7 88.0 178.55 88.45 177.4 89.5 176.4 90.55 175.35 92.2 174.7 93.85 174.05 96.2 174.05 98.55 174.05 100.2 174.95 101.85 175.85 102.95 177.4 104.0 178.85 104.5 180.85 105.0 182.8 105.0 184.9 L104.95 188.3 104.95 192.1 104.95 195.35 105.05 198.45 105.25 201.3 105.55 203.65 99.8 204.0 M99.45 189.45 L97.6 191.2 96.0 192.4 94.4 193.75 93.15 195.3 Q92.7 196.05 92.7 196.85 92.7 198.0 93.2 198.8 93.75 199.6 94.75 199.6 95.7 199.6 96.4 199.1 L97.7 197.85 98.65 196.3 99.25 194.75 99.45 189.45 M131.05 204.0 L130.8 202.45 130.6 200.8 Q129.45 202.5 127.85 203.4 126.25 204.3 124.35 204.3 L122.4 204.0 Q121.35 203.7 120.55 202.95 119.7 202.15 119.15 200.85 118.6 199.5 118.6 197.45 118.6 195.75 119.1 194.5 119.6 193.25 120.4 192.3 121.2 191.35 122.2 190.65 L124.2 189.4 Q125.15 188.85 126.05 188.4 L127.55 187.45 129.45 185.6 130.75 183.55 130.4 180.7 Q130.15 179.6 129.7 178.95 129.3 178.25 128.7 178.0 L127.3 177.75 Q126.15 177.75 125.35 178.25 124.55 178.75 124.05 179.45 L125.05 180.3 125.55 181.15 125.75 182.15 Q125.75 183.85 124.8 184.7 123.85 185.6 122.35 185.6 L120.95 185.25 119.8 184.25 Q119.3 183.6 119.05 182.7 118.75 181.8 118.75 180.75 118.75 179.7 119.25 178.55 119.7 177.4 120.75 176.4 121.8 175.35 123.45 174.7 125.1 174.05 127.45 174.05 129.8 174.05 131.45 174.95 133.1 175.85 134.2 177.4 135.25 178.85 135.75 180.85 136.25 182.8 136.25 184.9 L136.2 188.3 136.2 192.1 136.2 195.35 136.3 198.45 136.5 201.3 136.8 203.65 131.05 204.0 M146.4 175.4 L146.25 177.45 Q147.1 176.1 148.05 175.35 L149.75 174.35 151.1 174.0 151.65 174.0 Q153.5 174.0 154.9 174.85 156.25 175.7 157.15 177.3 158.05 178.9 158.5 181.2 158.9 183.5 158.9 186.4 L158.85 190.8 158.6 195.25 158.1 199.5 157.25 203.5 151.45 202.8 152.35 197.25 152.85 192.8 153.05 188.7 152.9 184.55 152.35 181.65 Q151.95 180.5 151.3 179.9 150.65 179.35 149.6 179.35 148.9 179.5 148.2 180.35 147.6 181.05 146.9 182.65 146.25 184.2 145.75 187.1 L145.65 190.95 145.65 195.0 145.65 198.9 145.7 203.6 140.05 203.5 140.15 198.1 140.2 191.75 140.15 184.25 139.95 175.3 146.4 175.4 M130.7 189.45 L128.85 191.2 127.25 192.4 125.65 193.75 124.4 195.3 Q123.95 196.05 123.95 196.85 123.95 198.0 124.45 198.8 125.0 199.6 126.0 199.6 126.95 199.6 127.65 199.1 L128.95 197.85 129.9 196.3 130.5 194.75 130.7 189.45" fill="#1f262a" fill-rule="evenodd" stroke="none"/>
    <path d="M217.6 185.15 Q217.6 189.15 216.85 192.6 216.1 196.1 214.6 198.7 213.15 201.3 211.0 202.85 208.8 204.3 205.95 204.3 203.05 204.3 200.9 202.85 198.7 201.3 197.25 198.7 195.8 196.1 195.05 192.6 194.3 189.15 194.3 185.15 194.3 181.2 195.05 177.7 195.75 174.2 197.2 171.6 198.65 169.05 200.8 167.55 203.0 166.0 205.95 166.0 209.0 166.0 211.2 167.55 213.4 169.05 214.8 171.6 216.25 174.2 216.9 177.7 217.6 181.2 217.6 185.15 M181.35 165.6 L180.5 180.05 Q180.2 187.2 180.2 194.5 L180.35 204.2 174.65 204.3 174.85 199.4 172.8 202.25 170.9 203.75 168.85 204.4 Q167.6 204.4 166.3 203.7 165.0 203.0 163.95 201.2 162.9 199.45 162.25 196.5 161.55 193.55 161.55 189.1 161.55 186.15 161.9 183.9 162.25 181.65 162.85 179.95 163.45 178.3 164.3 177.2 165.1 176.05 166.05 175.35 166.95 174.65 167.95 174.35 L170.0 174.05 171.45 174.35 172.95 175.1 174.6 176.55 174.15 165.5 181.35 165.6 M174.95 191.05 L174.8 181.45 174.2 180.6 173.5 179.85 172.75 179.25 171.85 179.0 Q171.15 179.0 170.45 179.5 169.7 180.0 169.15 181.2 168.55 182.35 168.2 184.3 167.85 186.3 167.85 189.3 167.85 192.05 168.1 193.85 168.35 195.7 168.75 196.75 169.2 197.85 169.75 198.3 170.3 198.7 170.9 198.7 171.85 198.7 172.55 198.1 L173.7 196.55 174.45 194.7 174.95 193.05 174.95 191.05 M211.05 185.15 L210.8 179.35 Q210.55 176.6 210.0 174.6 209.4 172.55 208.4 171.35 207.4 170.2 205.95 170.2 204.55 170.2 203.55 171.35 202.6 172.55 202.0 174.6 201.4 176.6 201.1 179.35 200.85 182.05 200.85 185.15 200.85 188.25 201.1 191.0 201.4 193.7 202.0 195.75 202.6 197.75 203.6 198.95 204.55 200.15 205.95 200.15 207.3 200.15 208.3 198.95 209.25 197.75 209.9 195.75 L210.8 191.0 211.05 185.15 M237.75 180.55 Q237.75 181.7 237.3 182.5 L236.3 183.8 235.05 184.5 233.95 184.75 232.85 184.6 Q232.25 184.4 231.7 184.0 231.15 183.6 230.75 182.9 230.35 182.15 230.35 181.05 L230.55 179.9 231.1 178.85 Q231.45 178.3 232.1 177.9 L231.25 176.9 230.45 176.4 229.65 176.15 228.25 176.45 Q227.65 176.75 227.2 177.3 226.75 177.75 226.55 178.45 226.3 179.1 226.3 179.85 L226.4 181.5 227.0 183.05 228.35 184.7 230.8 186.8 233.45 189.15 235.35 191.35 236.5 193.55 Q236.85 194.65 236.85 195.85 L236.7 197.6 236.15 199.5 235.15 201.35 233.55 202.9 231.4 204.0 228.5 204.4 Q226.05 204.4 224.35 203.7 222.6 203.0 221.5 201.95 220.4 200.9 219.9 199.75 219.35 198.6 219.35 197.75 219.35 196.8 219.6 196.05 219.8 195.25 220.3 194.65 220.8 194.05 221.55 193.7 222.3 193.35 223.4 193.35 L225.05 193.65 226.3 194.45 227.1 195.75 227.4 197.5 227.25 198.35 226.8 199.2 226.0 200.05 226.7 200.45 227.3 200.65 227.9 200.7 228.65 200.55 229.5 199.95 230.15 198.95 230.45 197.6 230.3 196.15 229.75 194.8 228.45 193.2 226.3 191.15 223.9 188.85 222.15 186.5 Q221.45 185.25 221.05 183.9 220.7 182.6 220.7 180.95 220.7 179.35 221.35 177.85 221.95 176.4 223.15 175.25 224.3 174.05 225.95 173.4 227.65 172.7 229.7 172.7 231.8 172.7 233.3 173.35 234.85 174.0 235.8 175.1 236.8 176.15 237.25 177.55 237.75 179.0 237.75 180.55 M258.5 181.85 Q258.5 183.55 258.05 184.55 L256.95 186.1 Q256.3 186.6 255.65 186.75 L254.55 186.9 253.55 186.75 252.4 186.2 Q251.8 185.8 251.45 185.05 251.05 184.25 251.05 183.05 L251.3 181.75 251.9 180.6 Q252.3 180.05 253.05 179.65 L252.1 178.2 251.15 177.45 250.05 177.1 Q249.1 177.1 248.35 177.95 247.6 178.8 247.1 180.35 246.55 181.85 246.3 184.0 246.0 186.15 246.0 188.75 L246.2 193.55 Q246.35 195.75 246.8 197.4 247.2 199.05 247.95 200.0 248.65 200.95 249.75 200.95 L250.9 200.7 251.95 200.05 252.95 198.7 251.6 197.7 250.95 196.5 250.7 195.1 Q250.7 193.9 251.15 193.15 251.6 192.4 252.25 192.0 252.9 191.55 253.6 191.4 L254.65 191.2 255.7 191.4 256.9 192.05 Q257.5 192.55 257.9 193.5 258.3 194.4 258.3 195.85 258.3 197.3 257.6 198.9 256.9 200.45 255.7 201.75 254.45 203.05 252.9 203.85 251.3 204.7 249.55 204.7 L247.2 204.35 Q246.0 204.05 244.9 203.3 L242.85 201.35 Q241.85 200.1 241.15 198.35 240.45 196.6 240.05 194.2 239.6 191.8 239.6 188.75 239.6 185.65 240.05 183.35 240.5 181.0 241.3 179.3 242.1 177.65 243.1 176.55 244.15 175.45 245.3 174.8 246.45 174.15 247.65 173.9 L250.05 173.65 Q251.7 173.65 253.25 174.3 254.8 174.95 256.0 176.05 257.15 177.15 257.8 178.65 258.5 180.15 258.5 181.85 M272.85 204.0 L272.6 202.45 272.4 200.8 Q271.25 202.5 269.65 203.4 268.05 204.3 266.15 204.3 L264.2 204.0 262.35 202.95 Q261.5 202.15 260.95 200.85 260.4 199.5 260.4 197.45 260.4 195.75 260.9 194.5 261.4 193.25 262.2 192.3 L264.0 190.65 Q265.0 189.95 266.0 189.4 266.95 188.85 267.85 188.4 L269.35 187.45 271.25 185.6 272.55 183.55 272.2 180.7 Q271.95 179.6 271.5 178.95 271.1 178.25 270.5 178.0 L269.1 177.75 Q267.95 177.75 267.15 178.25 L265.85 179.45 266.85 180.3 267.35 181.15 267.55 182.15 Q267.55 183.85 266.6 184.7 265.65 185.6 264.15 185.6 L262.75 185.25 261.6 184.25 260.85 182.7 Q260.55 181.8 260.55 180.75 260.55 179.7 261.05 178.55 261.5 177.4 262.55 176.4 263.6 175.35 265.25 174.7 266.9 174.05 269.25 174.05 271.6 174.05 273.25 174.95 274.9 175.85 276.0 177.4 277.05 178.85 277.55 180.85 278.05 182.8 278.05 184.9 L278.0 188.3 278.0 192.1 278.0 195.35 278.1 198.45 278.3 201.3 278.6 203.65 272.85 204.0 M288.0 204.0 L281.35 204.5 281.95 195.95 282.15 187.6 282.05 181.75 281.75 175.65 287.35 175.35 287.25 176.45 287.25 177.45 Q288.1 176.1 289.15 175.35 290.2 174.6 291.1 174.25 292.1 173.8 293.15 173.7 294.95 173.7 296.25 174.3 297.55 174.85 298.4 175.75 299.2 176.6 299.55 177.7 299.95 178.75 299.95 179.8 L299.7 181.9 299.0 183.85 297.55 185.25 Q296.65 185.75 295.35 185.75 L293.3 185.3 Q292.6 184.8 292.2 184.15 291.8 183.5 291.7 182.8 L291.6 181.6 291.7 180.8 292.1 179.9 292.7 179.05 293.55 178.2 293.25 178.15 292.95 178.1 Q291.7 178.1 290.75 178.9 289.75 179.7 289.05 181.1 288.35 182.5 287.9 184.35 287.4 186.25 287.2 188.5 L287.55 196.15 288.0 204.0 M272.5 189.45 L270.65 191.2 269.05 192.4 267.45 193.75 266.2 195.3 Q265.75 196.05 265.75 196.85 265.75 198.0 266.25 198.8 266.8 199.6 267.8 199.6 268.75 199.6 269.45 199.1 L270.75 197.85 271.7 196.3 272.3 194.75 272.5 189.45 M20.25 194.45 Q20.0 197.25 19.0 199.1 17.95 200.95 16.45 202.1 14.95 203.15 13.15 203.6 L9.55 204.05 5.95 203.55 Q4.25 203.05 2.9 202.05 1.6 201.0 0.8 199.45 0.0 197.9 0.0 195.85 0.0 194.25 0.5 193.2 1.0 192.1 1.7 191.45 2.45 190.8 3.25 190.55 L4.8 190.3 6.25 190.5 7.7 191.25 Q8.35 191.8 8.75 192.7 9.15 193.55 9.15 194.9 L9.15 195.35 8.85 196.35 8.1 197.45 Q7.55 197.95 6.6 198.2 7.3 199.05 8.25 199.5 L9.8 199.95 11.3 199.7 Q12.1 199.5 12.85 198.95 L14.1 197.55 Q14.6 196.65 14.6 195.3 14.6 193.75 14.1 192.5 L12.7 190.35 10.85 188.75 8.85 187.45 7.3 186.55 5.4 185.35 3.5 183.75 1.8 181.65 Q1.05 180.5 0.6 179.05 0.1 177.65 0.1 175.95 0.1 173.35 1.0 171.45 1.9 169.5 3.35 168.2 4.8 166.9 6.6 166.25 8.4 165.6 10.3 165.6 12.15 165.6 13.85 166.15 15.55 166.65 16.85 167.6 18.1 168.55 18.85 169.9 19.6 171.2 19.6 172.85 19.6 174.55 19.05 175.5 18.5 176.5 17.8 177.0 17.0 177.5 16.25 177.6 L14.95 177.75 13.7 177.5 Q13.05 177.3 12.55 176.85 L11.65 175.75 Q11.3 175.1 11.3 174.25 L11.45 173.15 11.7 172.1 12.3 171.1 Q11.9 170.75 11.55 170.55 L10.85 170.25 10.15 170.1 8.75 170.35 Q8.0 170.6 7.45 171.1 L6.45 172.35 Q6.1 173.1 6.1 174.15 6.1 175.35 6.45 176.3 L7.65 178.15 9.7 179.95 12.6 182.0 16.1 184.5 18.5 187.15 Q19.4 188.5 19.85 190.0 20.3 191.45 20.3 193.15 L20.3 193.8 20.25 194.45 M40.75 197.65 Q40.75 199.1 40.1 200.4 39.45 201.7 38.3 202.65 37.15 203.6 35.6 204.15 L32.3 204.7 29.95 204.35 Q28.75 204.05 27.65 203.3 L25.6 201.35 Q24.6 200.1 23.9 198.35 23.2 196.6 22.8 194.2 22.35 191.8 22.35 188.75 22.35 185.8 22.8 183.6 23.2 181.35 23.9 179.65 24.6 178.0 25.55 176.9 26.5 175.75 27.6 175.05 28.65 174.3 29.85 174.0 L32.1 173.7 Q33.8 173.7 35.25 174.25 36.75 174.8 37.9 175.85 39.0 176.9 39.7 178.4 40.35 179.95 40.35 181.95 40.35 183.75 39.6 185.55 38.85 187.4 37.4 189.05 L33.85 192.0 Q31.7 193.3 28.95 194.1 29.1 195.65 29.4 196.9 L30.1 199.05 Q30.55 199.95 31.15 200.45 31.7 200.95 32.5 200.95 L33.45 200.8 34.25 200.4 34.9 199.6 Q34.25 199.3 33.95 198.8 L33.4 197.9 33.2 196.85 Q33.2 195.7 33.65 194.95 L34.75 193.75 Q35.4 193.35 36.1 193.2 L37.15 193.0 38.2 193.2 Q38.8 193.35 39.4 193.85 L40.4 195.3 Q40.75 196.2 40.75 197.65 M34.6 182.0 L34.45 180.3 34.0 178.85 33.25 177.9 Q32.75 177.55 32.15 177.55 31.15 177.55 30.5 178.5 29.85 179.4 29.45 180.95 29.05 182.5 28.9 184.5 28.75 186.55 28.75 188.75 L28.75 190.55 Q30.0 189.9 31.1 188.95 L33.0 186.95 34.2 184.55 Q34.6 183.35 34.6 182.0 M50.0 175.4 L49.85 177.45 Q50.7 176.1 51.65 175.35 52.55 174.65 53.35 174.35 54.15 174.05 54.7 174.0 L55.25 174.0 Q57.1 174.0 58.5 174.85 59.85 175.7 60.75 177.3 61.65 178.9 62.1 181.2 62.5 183.5 62.5 186.4 L62.45 190.8 62.2 195.25 61.7 199.5 60.85 203.5 55.05 202.8 55.95 197.25 56.45 192.8 56.65 188.7 56.5 184.55 55.95 181.65 Q55.55 180.5 54.9 179.9 54.25 179.35 53.2 179.35 52.5 179.5 51.8 180.35 51.2 181.05 50.5 182.65 49.85 184.2 49.35 187.1 L49.25 190.95 49.25 195.0 49.25 198.9 49.3 203.6 43.65 203.5 43.75 198.1 43.8 191.75 43.75 184.25 43.55 175.3 50.0 175.4 M84.85 176.15 L84.6 179.1 84.45 182.1 84.25 185.0 84.15 187.7 83.95 193.4 Q83.8 196.35 83.8 199.25 L83.6 204.7 82.95 209.55 Q82.45 211.75 81.35 213.4 80.25 215.05 78.4 215.95 76.55 216.85 73.65 216.85 71.45 216.85 70.15 216.25 L68.15 214.7 Q67.45 213.8 67.25 212.75 L67.0 210.95 Q67.0 210.1 67.3 209.4 L68.0 208.1 69.2 207.2 70.7 206.9 Q71.65 206.9 72.35 207.25 L73.6 208.15 74.3 209.4 74.55 210.8 74.4 211.6 73.95 212.4 73.1 213.25 73.65 213.45 74.15 213.45 75.55 213.1 76.8 211.85 77.8 209.8 Q78.2 208.55 78.25 206.85 L78.3 203.15 78.35 199.2 Q77.5 200.85 76.55 201.75 L74.7 203.0 Q73.7 203.5 72.65 203.6 70.8 203.6 69.45 202.7 68.1 201.8 67.2 200.1 66.3 198.4 65.85 196.05 65.4 193.65 65.4 190.7 65.4 182.55 66.55 175.15 L72.85 175.85 72.5 177.65 72.15 179.65 71.9 181.8 71.65 183.8 71.3 188.45 Q71.3 190.8 71.45 192.6 71.6 194.35 72.0 195.5 72.35 196.65 73.05 197.2 73.7 197.8 74.75 197.8 75.5 197.65 76.2 196.75 L76.8 195.75 77.45 194.3 78.1 192.25 78.65 189.5 78.75 185.95 78.8 182.85 78.7 179.45 78.5 176.05 84.85 176.15 M99.8 204.0 L99.55 202.45 99.35 200.8 Q98.2 202.5 96.6 203.4 95.0 204.3 93.1 204.3 L91.15 204.0 89.3 202.95 Q88.45 202.15 87.9 200.85 87.35 199.5 87.35 197.45 87.35 195.75 87.85 194.5 88.35 193.25 89.15 192.3 L90.95 190.65 Q91.95 189.95 92.95 189.4 L94.8 188.4 96.3 187.45 98.2 185.6 99.5 183.55 99.15 180.7 98.45 178.95 Q98.05 178.25 97.45 178.0 L96.05 177.75 Q94.9 177.75 94.1 178.25 93.3 178.75 92.8 179.45 L93.8 180.3 94.3 181.15 94.5 182.15 Q94.5 183.85 93.55 184.7 92.6 185.6 91.1 185.6 90.35 185.6 89.7 185.25 L88.55 184.25 Q88.05 183.6 87.8 182.7 87.5 181.8 87.5 180.75 87.5 179.7 88.0 178.55 88.45 177.4 89.5 176.4 90.55 175.35 92.2 174.7 93.85 174.05 96.2 174.05 98.55 174.05 100.2 174.95 101.85 175.85 102.95 177.4 104.0 178.85 104.5 180.85 105.0 182.8 105.0 184.9 L104.95 188.3 104.95 192.1 104.95 195.35 105.05 198.45 105.25 201.3 105.55 203.65 99.8 204.0 M99.45 189.45 L97.6 191.2 96.0 192.4 94.4 193.75 93.15 195.3 Q92.7 196.05 92.7 196.85 92.7 198.0 93.2 198.8 93.75 199.6 94.75 199.6 95.7 199.6 96.4 199.1 L97.7 197.85 98.65 196.3 99.25 194.75 99.45 189.45 M131.05 204.0 L130.8 202.45 130.6 200.8 Q129.45 202.5 127.85 203.4 126.25 204.3 124.35 204.3 L122.4 204.0 Q121.35 203.7 120.55 202.95 119.7 202.15 119.15 200.85 118.6 199.5 118.6 197.45 118.6 195.75 119.1 194.5 119.6 193.25 120.4 192.3 121.2 191.35 122.2 190.65 L124.2 189.4 Q125.15 188.85 126.05 188.4 L127.55 187.45 129.45 185.6 130.75 183.55 130.4 180.7 Q130.15 179.6 129.7 178.95 129.3 178.25 128.7 178.0 L127.3 177.75 Q126.15 177.75 125.35 178.25 124.55 178.75 124.05 179.45 L125.05 180.3 125.55 181.15 125.75 182.15 Q125.75 183.85 124.8 184.7 123.85 185.6 122.35 185.6 L120.95 185.25 119.8 184.25 Q119.3 183.6 119.05 182.7 118.75 181.8 118.75 180.75 118.75 179.7 119.25 178.55 119.7 177.4 120.75 176.4 121.8 175.35 123.45 174.7 125.1 174.05 127.45 174.05 129.8 174.05 131.45 174.95 133.1 175.85 134.2 177.4 135.25 178.85 135.75 180.85 136.25 182.8 136.25 184.9 L136.2 188.3 136.2 192.1 136.2 195.35 136.3 198.45 136.5 201.3 136.8 203.65 131.05 204.0 M146.4 175.4 L146.25 177.45 Q147.1 176.1 148.05 175.35 L149.75 174.35 151.1 174.0 151.65 174.0 Q153.5 174.0 154.9 174.85 156.25 175.7 157.15 177.3 158.05 178.9 158.5 181.2 158.9 183.5 158.9 186.4 L158.85 190.8 158.6 195.25 158.1 199.5 157.25 203.5 151.45 202.8 152.35 197.25 152.85 192.8 153.05 188.7 152.9 184.55 152.35 181.65 Q151.95 180.5 151.3 179.9 150.65 179.35 149.6 179.35 148.9 179.5 148.2 180.35 147.6 181.05 146.9 182.65 146.25 184.2 145.75 187.1 L145.65 190.95 145.65 195.0 145.65 198.9 145.7 203.6 140.05 203.5 140.15 198.1 140.2 191.75 140.15 184.25 139.95 175.3 146.4 175.4 M130.7 189.45 L128.85 191.2 127.25 192.4 125.65 193.75 124.4 195.3 Q123.95 196.05 123.95 196.85 123.95 198.0 124.45 198.8 125.0 199.6 126.0 199.6 126.95 199.6 127.65 199.1 L128.95 197.85 129.9 196.3 130.5 194.75 130.7 189.45" fill="none" stroke="#583818" stroke-linecap="round" stroke-linejoin="round" stroke-width="5.0"/>
    <path d="M141.0 219.85 L140.85 223.4 140.7 226.45 140.6 229.2 140.55 231.75 140.55 234.3 140.5 237.0 140.5 240.35 140.55 244.3 137.0 244.2 137.15 239.55 137.15 234.85 137.15 231.55 137.1 228.05 137.05 224.1 136.95 219.8 141.0 219.85 M128.25 244.55 L124.05 244.85 124.45 239.45 124.55 234.25 124.5 230.55 124.3 226.75 127.8 226.55 127.8 227.25 127.75 227.85 Q128.3 227.05 128.95 226.55 L130.15 225.85 131.45 225.55 Q132.6 225.55 133.4 225.9 134.25 226.25 134.75 226.8 L135.5 228.05 135.75 229.35 135.6 230.65 135.1 231.9 134.25 232.75 132.85 233.1 131.55 232.8 130.85 232.1 130.55 231.25 130.5 230.45 130.55 230.0 130.8 229.4 131.2 228.85 131.75 228.35 131.55 228.3 131.35 228.3 Q130.55 228.3 129.95 228.8 129.35 229.3 128.9 230.15 128.45 231.05 128.15 232.2 L127.75 234.8 127.95 239.6 128.25 244.55 M118.75 244.55 L118.55 243.55 118.45 242.55 116.7 244.15 Q115.7 244.75 114.55 244.75 L113.3 244.55 Q112.65 244.35 112.15 243.85 L111.25 242.55 Q110.9 241.7 110.9 240.4 110.9 239.35 111.25 238.55 111.55 237.8 112.05 237.2 L113.15 236.15 114.4 235.35 115.6 234.75 116.5 234.15 117.7 233.0 118.55 231.7 118.3 229.9 117.9 228.8 117.25 228.25 116.35 228.05 Q115.65 228.05 115.15 228.35 L114.35 229.1 Q114.75 229.35 114.95 229.65 L115.25 230.2 115.4 230.8 Q115.4 231.85 114.8 232.45 114.2 233.0 113.25 233.0 L112.4 232.8 Q111.95 232.55 111.65 232.15 L111.2 231.15 111.0 229.95 Q111.0 229.3 111.3 228.55 111.6 227.8 112.25 227.2 112.9 226.55 113.95 226.15 L116.45 225.75 Q117.9 225.75 118.95 226.3 120.0 226.85 120.7 227.8 121.35 228.75 121.65 230.0 L121.95 232.55 121.95 234.7 121.95 237.05 121.95 239.1 122.0 241.05 122.15 242.85 122.35 244.3 118.75 244.55 M166.6 229.8 L166.3 231.05 165.65 231.85 164.9 232.3 164.2 232.45 163.55 232.35 162.8 232.0 162.2 231.3 161.95 230.15 Q161.95 229.75 162.1 229.4 L162.4 228.75 163.05 228.15 162.5 227.55 162.0 227.2 Q161.75 227.05 161.5 227.05 L160.65 227.25 Q160.25 227.45 160.0 227.75 L159.55 228.5 Q159.4 228.9 159.4 229.35 L159.5 230.4 159.85 231.35 160.7 232.4 162.2 233.75 163.9 235.2 165.1 236.6 165.8 238.0 166.05 239.4 165.95 240.5 165.6 241.7 164.95 242.85 163.95 243.85 162.6 244.55 160.8 244.8 158.15 244.35 Q157.1 243.9 156.4 243.25 L155.4 241.85 Q155.05 241.15 155.05 240.6 155.05 240.05 155.2 239.55 L155.65 238.65 156.45 238.05 157.6 237.85 158.6 238.05 159.4 238.55 159.9 239.35 160.1 240.45 160.0 241.0 159.75 241.5 159.2 242.05 159.65 242.3 160.05 242.4 160.4 242.45 160.9 242.35 161.4 242.0 161.85 241.35 162.0 240.5 161.9 239.6 161.55 238.75 160.75 237.75 159.4 236.5 157.9 235.05 156.8 233.55 156.1 231.95 155.9 230.05 Q155.9 229.05 156.3 228.15 156.7 227.2 157.4 226.5 158.15 225.75 159.2 225.3 L161.55 224.9 Q162.85 224.9 163.8 225.3 L165.35 226.4 166.3 227.95 166.6 229.8 M154.1 240.55 Q154.1 241.45 153.7 242.3 L152.55 243.7 Q151.8 244.3 150.85 244.6 L148.8 244.95 147.3 244.75 145.85 244.1 144.55 242.85 Q143.95 242.1 143.5 241.0 L142.8 238.4 Q142.55 236.9 142.55 234.95 142.55 233.1 142.8 231.7 143.05 230.3 143.5 229.25 143.95 228.2 144.55 227.5 L145.85 226.35 Q146.5 225.9 147.25 225.7 L148.65 225.55 150.65 225.85 152.3 226.85 Q153.0 227.5 153.4 228.5 153.8 229.45 153.8 230.7 L153.35 232.95 152.0 235.15 149.75 237.0 146.7 238.3 Q146.75 239.3 146.95 240.05 L147.4 241.45 148.05 242.3 148.9 242.6 149.5 242.5 150.0 242.25 150.45 241.75 149.8 241.3 149.5 240.7 149.35 240.05 Q149.35 239.3 149.65 238.85 L150.35 238.1 Q150.75 237.85 151.15 237.75 L151.85 237.65 152.5 237.75 153.25 238.15 153.85 239.05 154.1 240.55 M150.25 230.7 L150.15 229.65 149.85 228.75 149.35 228.15 148.7 227.95 Q148.05 227.95 147.65 228.55 147.25 229.1 147.0 230.05 146.75 231.05 146.65 232.3 L146.55 234.95 146.55 236.1 148.05 235.1 149.2 233.8 150.0 232.35 150.25 230.7 M97.3 224.7 L94.15 224.5 91.8 224.4 91.1 224.4 90.5 224.45 90.5 230.6 92.45 230.5 93.9 230.35 95.15 230.2 95.15 230.45 95.1 230.75 95.1 231.15 95.15 232.35 95.25 233.8 92.4 233.55 90.55 233.5 90.65 238.55 90.85 241.9 91.05 244.35 90.35 244.3 89.55 244.25 88.4 244.3 87.4 244.35 86.4 244.4 86.6 242.3 86.7 240.2 86.85 238.25 86.9 236.45 87.0 232.65 86.9 228.8 86.85 227.05 86.7 225.15 86.6 223.2 86.4 221.3 89.9 221.45 92.6 221.45 94.65 221.45 96.05 221.4 97.15 221.3 97.15 221.6 97.15 222.35 97.2 223.45 97.3 224.7 M109.65 240.55 Q109.65 241.45 109.25 242.3 L108.1 243.7 106.4 244.6 104.35 244.95 102.85 244.75 101.4 244.1 100.1 242.85 99.05 241.0 98.35 238.4 Q98.1 236.9 98.1 234.95 98.1 233.1 98.35 231.7 98.6 230.3 99.05 229.25 99.5 228.2 100.1 227.5 L101.4 226.35 Q102.05 225.9 102.8 225.7 L104.2 225.55 106.2 225.85 Q107.15 226.2 107.85 226.85 108.55 227.5 108.95 228.5 109.35 229.45 109.35 230.7 L108.9 232.95 107.55 235.15 105.3 237.0 102.25 238.3 Q102.3 239.3 102.5 240.05 L102.95 241.45 103.6 242.3 104.45 242.6 105.05 242.5 105.55 242.25 106.0 241.75 105.35 241.3 105.05 240.7 104.9 240.05 Q104.9 239.3 105.2 238.85 L105.9 238.1 Q106.3 237.85 106.7 237.75 L107.4 237.65 108.05 237.75 108.8 238.15 109.4 239.05 109.65 240.55 M105.8 230.7 L105.7 229.65 105.4 228.75 104.9 228.15 104.25 227.95 Q103.6 227.95 103.2 228.55 102.8 229.1 102.55 230.05 102.3 231.05 102.2 232.3 L102.1 234.95 102.1 236.1 103.6 235.1 104.75 233.8 105.55 232.35 105.8 230.7 M118.5 235.4 L117.35 236.5 116.35 237.25 115.35 238.1 114.55 239.05 Q114.25 239.55 114.25 240.05 114.25 240.75 114.6 241.25 114.95 241.75 115.55 241.75 L116.6 241.45 117.4 240.7 118.0 239.7 118.4 238.7 118.5 235.4 M48.0 244.15 L47.6 244.15 45.75 244.25 43.9 244.55 44.2 238.1 44.3 232.2 44.1 225.05 40.2 225.3 40.15 224.35 40.1 223.5 40.05 222.65 39.9 221.65 41.8 221.65 44.25 221.65 46.65 221.6 49.1 221.55 51.6 221.4 51.5 222.75 51.5 223.9 51.5 224.75 47.65 224.8 47.6 227.8 47.6 230.7 47.7 237.45 48.0 244.15 M57.05 220.1 L56.8 224.15 56.6 228.2 Q57.15 227.15 57.85 226.6 58.5 226.0 59.1 225.75 L60.5 225.35 Q61.6 225.35 62.4 225.9 63.2 226.45 63.75 227.5 L64.5 229.95 64.7 233.1 64.5 238.85 Q64.3 241.6 63.7 244.2 L60.05 243.8 60.6 240.3 60.9 237.5 61.0 234.9 61.0 232.35 60.75 230.5 60.2 229.4 Q59.8 229.05 59.15 229.05 L58.15 229.7 57.7 230.3 57.25 231.15 56.8 232.4 56.45 234.0 56.4 237.2 56.4 240.3 56.4 242.3 56.45 244.3 52.9 244.2 53.15 238.5 53.25 232.75 53.1 226.4 52.8 220.05 57.05 220.1 M77.95 240.55 Q77.95 241.45 77.55 242.3 L76.4 243.7 Q75.65 244.3 74.7 244.6 L72.65 244.95 71.15 244.75 69.7 244.1 68.4 242.85 Q67.8 242.1 67.35 241.0 L66.65 238.4 Q66.4 236.9 66.4 234.95 66.4 233.1 66.65 231.7 66.9 230.3 67.35 229.25 67.8 228.2 68.4 227.5 L69.7 226.35 71.1 225.7 72.5 225.55 74.5 225.85 Q75.45 226.2 76.15 226.85 76.85 227.5 77.25 228.5 77.65 229.45 77.65 230.7 L77.2 232.95 75.85 235.15 73.6 237.0 Q72.25 237.8 70.55 238.3 70.6 239.3 70.8 240.05 L71.25 241.45 71.9 242.3 Q72.25 242.6 72.75 242.6 L73.35 242.5 73.85 242.25 74.3 241.75 73.65 241.3 73.35 240.7 73.2 240.05 Q73.2 239.3 73.5 238.85 L74.2 238.1 75.0 237.75 75.7 237.65 76.35 237.75 Q76.7 237.85 77.1 238.15 L77.7 239.05 77.95 240.55 M74.1 230.7 L74.0 229.65 73.7 228.75 73.2 228.15 72.55 227.95 Q71.9 227.95 71.5 228.55 71.1 229.1 70.85 230.05 70.6 231.05 70.5 232.3 L70.4 234.95 70.4 236.1 71.9 235.1 73.05 233.8 73.85 232.35 74.1 230.7 M302.85 240.55 Q302.85 241.45 302.45 242.3 L301.3 243.7 Q300.55 244.3 299.6 244.6 L297.55 244.95 296.05 244.75 294.6 244.1 293.3 242.85 Q292.7 242.1 292.25 241.0 L291.55 238.4 Q291.3 236.9 291.3 234.95 291.3 233.1 291.55 231.7 291.8 230.3 292.25 229.25 292.7 228.2 293.3 227.5 L294.6 226.35 Q295.25 225.9 296.0 225.7 L297.4 225.55 299.4 225.85 301.05 226.85 Q301.75 227.5 302.15 228.5 302.55 229.45 302.55 230.7 L302.1 232.95 300.75 235.15 298.5 237.0 295.45 238.3 Q295.5 239.3 295.7 240.05 L296.15 241.45 296.8 242.3 297.65 242.6 298.25 242.5 298.75 242.25 299.2 241.75 298.55 241.3 298.25 240.7 298.1 240.05 Q298.1 239.3 298.4 238.85 L299.1 238.1 299.9 237.75 300.6 237.65 301.25 237.75 302.0 238.15 302.6 239.05 302.85 240.55 M299.0 230.7 L298.9 229.65 298.6 228.75 298.1 228.15 297.45 227.95 Q296.8 227.95 296.4 228.55 296.0 229.1 295.75 230.05 295.5 231.05 295.4 232.3 L295.3 234.95 295.3 236.1 296.8 235.1 297.95 233.8 298.75 232.35 299.0 230.7 M283.0 244.55 L278.8 244.85 279.2 239.45 279.3 234.25 279.25 230.55 279.05 226.75 282.55 226.55 282.55 227.25 282.5 227.85 Q283.05 227.05 283.7 226.55 284.35 226.05 284.9 225.85 L286.2 225.55 Q287.35 225.55 288.15 225.9 289.0 226.25 289.5 226.8 L290.25 228.05 290.5 229.35 290.35 230.65 289.85 231.9 289.0 232.75 287.6 233.1 286.3 232.8 285.6 232.1 285.3 231.25 285.25 230.45 285.3 230.0 285.55 229.4 285.95 228.85 286.5 228.35 286.3 228.3 286.1 228.3 Q285.3 228.3 284.7 228.8 284.1 229.3 283.65 230.15 283.2 231.05 282.9 232.2 L282.5 234.8 282.7 239.6 283.0 244.55 M261.3 220.15 L261.1 223.3 260.95 226.45 262.3 226.4 263.7 226.3 263.75 230.3 262.25 230.1 260.8 230.0 260.8 232.6 260.75 235.25 260.8 239.95 261.0 244.65 256.9 244.6 257.25 237.3 257.45 229.9 256.1 229.95 254.8 230.05 254.9 226.35 256.2 226.4 257.45 226.45 257.4 223.35 257.35 220.2 261.3 220.15 M245.9 226.6 L245.85 227.85 Q246.35 227.0 246.95 226.55 L248.0 225.9 248.85 225.7 249.2 225.7 Q250.35 225.7 251.25 226.25 252.1 226.75 252.65 227.8 L253.5 230.25 253.75 233.5 253.75 236.25 253.6 239.05 253.25 241.7 252.75 244.2 249.1 243.8 249.65 240.3 249.95 237.5 250.1 234.9 250.0 232.35 249.65 230.5 249.0 229.4 Q248.55 229.05 247.9 229.05 L247.05 229.7 Q246.65 230.15 246.25 231.15 245.8 232.1 245.5 233.9 L245.45 236.35 245.45 238.85 245.45 241.3 245.45 244.3 241.9 244.2 242.0 240.85 242.0 236.85 242.0 232.15 241.85 226.55 245.9 226.6 M272.7 244.05 L272.8 242.85 272.85 241.75 271.75 243.2 270.6 243.95 269.4 244.3 Q268.25 244.3 267.4 243.7 266.55 243.15 266.0 242.05 265.4 241.0 265.15 239.55 264.85 238.05 264.85 236.2 L265.05 231.2 Q265.2 228.75 265.6 226.45 L269.55 226.85 269.0 230.2 268.7 232.7 268.55 234.8 268.65 237.35 Q268.75 238.45 269.0 239.2 269.25 239.9 269.65 240.3 270.1 240.65 270.75 240.65 L271.6 240.0 272.0 239.4 272.4 238.5 272.8 237.25 273.15 235.6 273.2 233.75 273.2 231.8 273.2 229.3 273.15 226.35 276.7 226.4 276.6 228.6 276.55 230.5 276.5 232.15 276.45 233.65 276.5 235.85 276.55 238.15 276.65 240.8 276.8 244.1 272.7 244.05 M214.05 220.45 Q213.7 225.0 213.5 229.5 L213.3 238.55 213.4 244.65 209.85 244.75 209.95 241.65 208.65 243.45 207.45 244.35 206.2 244.8 204.6 244.35 Q203.75 243.9 203.1 242.8 202.45 241.65 202.05 239.8 201.6 237.95 201.6 235.15 201.6 233.3 201.85 231.9 L202.45 229.45 Q202.8 228.4 203.3 227.7 L204.4 226.55 Q205.0 226.1 205.65 225.9 L206.9 225.75 207.8 225.95 208.75 226.4 209.8 227.3 209.5 220.4 214.05 220.45 M228.05 226.55 L226.65 231.05 225.4 235.45 224.3 239.85 223.35 244.45 218.85 244.55 218.0 240.05 217.1 235.7 216.05 231.35 214.9 226.85 219.4 226.65 220.2 233.5 221.25 240.3 222.5 233.4 223.2 226.5 228.05 226.55 M210.0 236.4 L209.9 230.35 209.55 229.85 209.1 229.35 208.6 229.0 208.05 228.85 Q207.6 228.85 207.2 229.15 L206.35 230.2 Q206.0 230.95 205.8 232.2 205.55 233.4 205.55 235.3 205.55 237.05 205.7 238.15 205.85 239.3 206.15 240.0 L206.75 240.95 207.5 241.2 Q208.05 241.2 208.5 240.8 L209.25 239.85 209.7 238.7 210.0 237.65 210.0 236.4 M240.1 240.55 Q240.1 241.45 239.7 242.3 L238.55 243.7 236.85 244.6 234.8 244.95 233.3 244.75 231.85 244.1 230.55 242.85 Q229.95 242.1 229.5 241.0 L228.8 238.4 Q228.55 236.9 228.55 234.95 228.55 233.1 228.8 231.7 229.05 230.3 229.5 229.25 229.95 228.2 230.55 227.5 L231.85 226.35 Q232.5 225.9 233.25 225.7 L234.65 225.55 236.65 225.85 238.3 226.85 Q239.0 227.5 239.4 228.5 239.8 229.45 239.8 230.7 L239.35 232.95 238.0 235.15 Q237.1 236.15 235.75 237.0 234.4 237.8 232.7 238.3 232.75 239.3 232.95 240.05 L233.4 241.45 234.05 242.3 Q234.4 242.6 234.9 242.6 L235.5 242.5 236.0 242.25 236.45 241.75 235.8 241.3 235.5 240.7 235.35 240.05 Q235.35 239.3 235.65 238.85 L236.35 238.1 Q236.75 237.85 237.15 237.75 L237.85 237.65 238.5 237.75 239.25 238.15 239.85 239.05 240.1 240.55 M236.25 230.7 L236.15 229.65 235.85 228.75 235.35 228.15 234.7 227.95 Q234.05 227.95 233.65 228.55 233.25 229.1 233.0 230.05 232.75 231.05 232.65 232.3 L232.55 234.95 232.55 236.1 234.05 235.1 235.2 233.8 236.0 232.35 236.25 230.7 M187.55 242.05 L187.5 239.65 187.4 237.25 187.3 234.8 187.25 232.3 187.3 229.6 Q187.4 228.25 187.65 226.95 L188.35 224.55 Q188.75 223.45 189.5 222.6 190.2 221.8 191.2 221.3 192.2 220.8 193.6 220.8 194.9 220.8 195.85 221.25 196.85 221.65 197.5 222.35 L198.65 224.05 199.3 226.15 199.65 228.5 199.75 230.9 199.75 231.45 199.7 232.0 199.7 232.6 199.6 233.6 199.55 235.05 199.45 237.25 199.35 240.25 199.25 244.3 194.55 244.15 195.05 240.6 195.4 237.25 193.15 237.15 192.15 237.15 191.3 237.2 191.45 238.95 191.55 240.75 191.75 242.6 191.95 244.3 187.55 244.4 187.55 243.25 187.55 242.05 M178.95 229.8 L178.65 231.05 178.0 231.85 177.25 232.3 176.55 232.45 175.9 232.35 175.15 232.0 174.55 231.3 Q174.3 230.8 174.3 230.15 174.3 229.75 174.45 229.4 L174.75 228.75 175.4 228.15 174.85 227.55 174.35 227.2 173.85 227.05 173.0 227.25 172.35 227.75 Q172.05 228.05 171.9 228.5 171.75 228.9 171.75 229.35 L171.85 230.4 172.2 231.35 173.05 232.4 174.55 233.75 176.25 235.2 177.45 236.6 178.15 238.0 178.4 239.4 178.3 240.5 177.95 241.7 177.3 242.85 176.3 243.85 Q175.7 244.3 174.95 244.55 L173.15 244.8 170.5 244.35 Q169.45 243.9 168.75 243.25 L167.75 241.85 Q167.4 241.15 167.4 240.6 167.4 240.05 167.55 239.55 167.7 239.05 168.0 238.65 168.3 238.3 168.8 238.05 L169.95 237.85 170.95 238.05 171.75 238.55 172.25 239.35 172.45 240.45 172.35 241.0 172.1 241.5 171.55 242.05 172.0 242.3 172.4 242.4 172.75 242.45 173.25 242.35 173.75 242.0 174.2 241.35 174.35 240.5 174.25 239.6 173.9 238.75 173.1 237.75 171.75 236.5 170.25 235.05 169.15 233.55 168.45 231.95 168.25 230.05 Q168.25 229.05 168.65 228.15 169.05 227.2 169.75 226.5 170.5 225.75 171.55 225.3 L173.9 224.9 176.15 225.3 Q177.1 225.7 177.7 226.4 178.35 227.05 178.65 227.95 L178.95 229.8 M191.15 233.9 L192.05 233.95 192.95 233.95 195.65 233.85 195.85 231.6 195.95 229.2 Q195.95 226.5 195.4 225.1 194.8 223.7 193.75 223.7 193.15 223.7 192.65 224.1 192.15 224.55 191.8 225.4 191.4 226.3 191.2 227.65 L191.0 230.8 191.05 232.2 191.15 233.9" fill="#ffffff" fill-rule="evenodd" stroke="none"/>
    <path d="M217.6 185.15 Q217.6 189.15 216.85 192.6 216.1 196.1 214.6 198.7 213.15 201.3 211.0 202.85 208.8 204.3 205.95 204.3 203.05 204.3 200.9 202.85 198.7 201.3 197.25 198.7 195.8 196.1 195.05 192.6 194.3 189.15 194.3 185.15 194.3 181.2 195.05 177.7 195.75 174.2 197.2 171.6 198.65 169.05 200.8 167.55 203.0 166.0 205.95 166.0 209.0 166.0 211.2 167.55 213.4 169.05 214.8 171.6 216.25 174.2 216.9 177.7 217.6 181.2 217.6 185.15 M181.35 165.6 L180.5 180.05 Q180.2 187.2 180.2 194.5 L180.35 204.2 174.65 204.3 174.85 199.4 172.8 202.25 170.9 203.75 168.85 204.4 Q167.6 204.4 166.3 203.7 165.0 203.0 163.95 201.2 162.9 199.45 162.25 196.5 161.55 193.55 161.55 189.1 161.55 186.15 161.9 183.9 162.25 181.65 162.85 179.95 163.45 178.3 164.3 177.2 165.1 176.05 166.05 175.35 166.95 174.65 167.95 174.35 L170.0 174.05 171.45 174.35 172.95 175.1 174.6 176.55 174.15 165.5 181.35 165.6 M174.95 191.05 L174.8 181.45 174.2 180.6 173.5 179.85 172.75 179.25 171.85 179.0 Q171.15 179.0 170.45 179.5 169.7 180.0 169.15 181.2 168.55 182.35 168.2 184.3 167.85 186.3 167.85 189.3 167.85 192.05 168.1 193.85 168.35 195.7 168.75 196.75 169.2 197.85 169.75 198.3 170.3 198.7 170.9 198.7 171.85 198.7 172.55 198.1 L173.7 196.55 174.45 194.7 174.95 193.05 174.95 191.05 M211.05 185.15 L210.8 179.35 Q210.55 176.6 210.0 174.6 209.4 172.55 208.4 171.35 207.4 170.2 205.95 170.2 204.55 170.2 203.55 171.35 202.6 172.55 202.0 174.6 201.4 176.6 201.1 179.35 200.85 182.05 200.85 185.15 200.85 188.25 201.1 191.0 201.4 193.7 202.0 195.75 202.6 197.75 203.6 198.95 204.55 200.15 205.95 200.15 207.3 200.15 208.3 198.95 209.25 197.75 209.9 195.75 L210.8 191.0 211.05 185.15 M237.75 180.55 Q237.75 181.7 237.3 182.5 L236.3 183.8 235.05 184.5 233.95 184.75 232.85 184.6 Q232.25 184.4 231.7 184.0 231.15 183.6 230.75 182.9 230.35 182.15 230.35 181.05 L230.55 179.9 231.1 178.85 Q231.45 178.3 232.1 177.9 L231.25 176.9 230.45 176.4 229.65 176.15 228.25 176.45 Q227.65 176.75 227.2 177.3 226.75 177.75 226.55 178.45 226.3 179.1 226.3 179.85 L226.4 181.5 227.0 183.05 228.35 184.7 230.8 186.8 233.45 189.15 235.35 191.35 236.5 193.55 Q236.85 194.65 236.85 195.85 L236.7 197.6 236.15 199.5 235.15 201.35 233.55 202.9 231.4 204.0 228.5 204.4 Q226.05 204.4 224.35 203.7 222.6 203.0 221.5 201.95 220.4 200.9 219.9 199.75 219.35 198.6 219.35 197.75 219.35 196.8 219.6 196.05 219.8 195.25 220.3 194.65 220.8 194.05 221.55 193.7 222.3 193.35 223.4 193.35 L225.05 193.65 226.3 194.45 227.1 195.75 227.4 197.5 227.25 198.35 226.8 199.2 226.0 200.05 226.7 200.45 227.3 200.65 227.9 200.7 228.65 200.55 229.5 199.95 230.15 198.95 230.45 197.6 230.3 196.15 229.75 194.8 228.45 193.2 226.3 191.15 223.9 188.85 222.15 186.5 Q221.45 185.25 221.05 183.9 220.7 182.6 220.7 180.95 220.7 179.35 221.35 177.85 221.95 176.4 223.15 175.25 224.3 174.05 225.95 173.4 227.65 172.7 229.7 172.7 231.8 172.7 233.3 173.35 234.85 174.0 235.8 175.1 236.8 176.15 237.25 177.55 237.75 179.0 237.75 180.55 M258.5 181.85 Q258.5 183.55 258.05 184.55 L256.95 186.1 Q256.3 186.6 255.65 186.75 L254.55 186.9 253.55 186.75 252.4 186.2 Q251.8 185.8 251.45 185.05 251.05 184.25 251.05 183.05 L251.3 181.75 251.9 180.6 Q252.3 180.05 253.05 179.65 L252.1 178.2 251.15 177.45 250.05 177.1 Q249.1 177.1 248.35 177.95 247.6 178.8 247.1 180.35 246.55 181.85 246.3 184.0 246.0 186.15 246.0 188.75 L246.2 193.55 Q246.35 195.75 246.8 197.4 247.2 199.05 247.95 200.0 248.65 200.95 249.75 200.95 L250.9 200.7 251.95 200.05 252.95 198.7 251.6 197.7 250.95 196.5 250.7 195.1 Q250.7 193.9 251.15 193.15 251.6 192.4 252.25 192.0 252.9 191.55 253.6 191.4 L254.65 191.2 255.7 191.4 256.9 192.05 Q257.5 192.55 257.9 193.5 258.3 194.4 258.3 195.85 258.3 197.3 257.6 198.9 256.9 200.45 255.7 201.75 254.45 203.05 252.9 203.85 251.3 204.7 249.55 204.7 L247.2 204.35 Q246.0 204.05 244.9 203.3 L242.85 201.35 Q241.85 200.1 241.15 198.35 240.45 196.6 240.05 194.2 239.6 191.8 239.6 188.75 239.6 185.65 240.05 183.35 240.5 181.0 241.3 179.3 242.1 177.65 243.1 176.55 244.15 175.45 245.3 174.8 246.45 174.15 247.65 173.9 L250.05 173.65 Q251.7 173.65 253.25 174.3 254.8 174.95 256.0 176.05 257.15 177.15 257.8 178.65 258.5 180.15 258.5 181.85 M272.85 204.0 L272.6 202.45 272.4 200.8 Q271.25 202.5 269.65 203.4 268.05 204.3 266.15 204.3 L264.2 204.0 262.35 202.95 Q261.5 202.15 260.95 200.85 260.4 199.5 260.4 197.45 260.4 195.75 260.9 194.5 261.4 193.25 262.2 192.3 L264.0 190.65 Q265.0 189.95 266.0 189.4 266.95 188.85 267.85 188.4 L269.35 187.45 271.25 185.6 272.55 183.55 272.2 180.7 Q271.95 179.6 271.5 178.95 271.1 178.25 270.5 178.0 L269.1 177.75 Q267.95 177.75 267.15 178.25 L265.85 179.45 266.85 180.3 267.35 181.15 267.55 182.15 Q267.55 183.85 266.6 184.7 265.65 185.6 264.15 185.6 L262.75 185.25 261.6 184.25 260.85 182.7 Q260.55 181.8 260.55 180.75 260.55 179.7 261.05 178.55 261.5 177.4 262.55 176.4 263.6 175.35 265.25 174.7 266.9 174.05 269.25 174.05 271.6 174.05 273.25 174.95 274.9 175.85 276.0 177.4 277.05 178.85 277.55 180.85 278.05 182.8 278.05 184.9 L278.0 188.3 278.0 192.1 278.0 195.35 278.1 198.45 278.3 201.3 278.6 203.65 272.85 204.0 M288.0 204.0 L281.35 204.5 281.95 195.95 282.15 187.6 282.05 181.75 281.75 175.65 287.35 175.35 287.25 176.45 287.25 177.45 Q288.1 176.1 289.15 175.35 290.2 174.6 291.1 174.25 292.1 173.8 293.15 173.7 294.95 173.7 296.25 174.3 297.55 174.85 298.4 175.75 299.2 176.6 299.55 177.7 299.95 178.75 299.95 179.8 L299.7 181.9 299.0 183.85 297.55 185.25 Q296.65 185.75 295.35 185.75 L293.3 185.3 Q292.6 184.8 292.2 184.15 291.8 183.5 291.7 182.8 L291.6 181.6 291.7 180.8 292.1 179.9 292.7 179.05 293.55 178.2 293.25 178.15 292.95 178.1 Q291.7 178.1 290.75 178.9 289.75 179.7 289.05 181.1 288.35 182.5 287.9 184.35 287.4 186.25 287.2 188.5 L287.55 196.15 288.0 204.0 M272.5 189.45 L270.65 191.2 269.05 192.4 267.45 193.75 266.2 195.3 Q265.75 196.05 265.75 196.85 265.75 198.0 266.25 198.8 266.8 199.6 267.8 199.6 268.75 199.6 269.45 199.1 L270.75 197.85 271.7 196.3 272.3 194.75 272.5 189.45 M20.25 194.45 Q20.0 197.25 19.0 199.1 17.95 200.95 16.45 202.1 14.95 203.15 13.15 203.6 L9.55 204.05 5.95 203.55 Q4.25 203.05 2.9 202.05 1.6 201.0 0.8 199.45 0.0 197.9 0.0 195.85 0.0 194.25 0.5 193.2 1.0 192.1 1.7 191.45 2.45 190.8 3.25 190.55 L4.8 190.3 6.25 190.5 7.7 191.25 Q8.35 191.8 8.75 192.7 9.15 193.55 9.15 194.9 L9.15 195.35 8.85 196.35 8.1 197.45 Q7.55 197.95 6.6 198.2 7.3 199.05 8.25 199.5 L9.8 199.95 11.3 199.7 Q12.1 199.5 12.85 198.95 L14.1 197.55 Q14.6 196.65 14.6 195.3 14.6 193.75 14.1 192.5 L12.7 190.35 10.85 188.75 8.85 187.45 7.3 186.55 5.4 185.35 3.5 183.75 1.8 181.65 Q1.05 180.5 0.6 179.05 0.1 177.65 0.1 175.95 0.1 173.35 1.0 171.45 1.9 169.5 3.35 168.2 4.8 166.9 6.6 166.25 8.4 165.6 10.3 165.6 12.15 165.6 13.85 166.15 15.55 166.65 16.85 167.6 18.1 168.55 18.85 169.9 19.6 171.2 19.6 172.85 19.6 174.55 19.05 175.5 18.5 176.5 17.8 177.0 17.0 177.5 16.25 177.6 L14.95 177.75 13.7 177.5 Q13.05 177.3 12.55 176.85 L11.65 175.75 Q11.3 175.1 11.3 174.25 L11.45 173.15 11.7 172.1 12.3 171.1 Q11.9 170.75 11.55 170.55 L10.85 170.25 10.15 170.1 8.75 170.35 Q8.0 170.6 7.45 171.1 L6.45 172.35 Q6.1 173.1 6.1 174.15 6.1 175.35 6.45 176.3 L7.65 178.15 9.7 179.95 12.6 182.0 16.1 184.5 18.5 187.15 Q19.4 188.5 19.85 190.0 20.3 191.45 20.3 193.15 L20.3 193.8 20.25 194.45 M40.75 197.65 Q40.75 199.1 40.1 200.4 39.45 201.7 38.3 202.65 37.15 203.6 35.6 204.15 L32.3 204.7 29.95 204.35 Q28.75 204.05 27.65 203.3 L25.6 201.35 Q24.6 200.1 23.9 198.35 23.2 196.6 22.8 194.2 22.35 191.8 22.35 188.75 22.35 185.8 22.8 183.6 23.2 181.35 23.9 179.65 24.6 178.0 25.55 176.9 26.5 175.75 27.6 175.05 28.65 174.3 29.85 174.0 L32.1 173.7 Q33.8 173.7 35.25 174.25 36.75 174.8 37.9 175.85 39.0 176.9 39.7 178.4 40.35 179.95 40.35 181.95 40.35 183.75 39.6 185.55 38.85 187.4 37.4 189.05 L33.85 192.0 Q31.7 193.3 28.95 194.1 29.1 195.65 29.4 196.9 L30.1 199.05 Q30.55 199.95 31.15 200.45 31.7 200.95 32.5 200.95 L33.45 200.8 34.25 200.4 34.9 199.6 Q34.25 199.3 33.95 198.8 L33.4 197.9 33.2 196.85 Q33.2 195.7 33.65 194.95 L34.75 193.75 Q35.4 193.35 36.1 193.2 L37.15 193.0 38.2 193.2 Q38.8 193.35 39.4 193.85 L40.4 195.3 Q40.75 196.2 40.75 197.65 M34.6 182.0 L34.45 180.3 34.0 178.85 33.25 177.9 Q32.75 177.55 32.15 177.55 31.15 177.55 30.5 178.5 29.85 179.4 29.45 180.95 29.05 182.5 28.9 184.5 28.75 186.55 28.75 188.75 L28.75 190.55 Q30.0 189.9 31.1 188.95 L33.0 186.95 34.2 184.55 Q34.6 183.35 34.6 182.0 M50.0 175.4 L49.85 177.45 Q50.7 176.1 51.65 175.35 52.55 174.65 53.35 174.35 54.15 174.05 54.7 174.0 L55.25 174.0 Q57.1 174.0 58.5 174.85 59.85 175.7 60.75 177.3 61.65 178.9 62.1 181.2 62.5 183.5 62.5 186.4 L62.45 190.8 62.2 195.25 61.7 199.5 60.85 203.5 55.05 202.8 55.95 197.25 56.45 192.8 56.65 188.7 56.5 184.55 55.95 181.65 Q55.55 180.5 54.9 179.9 54.25 179.35 53.2 179.35 52.5 179.5 51.8 180.35 51.2 181.05 50.5 182.65 49.85 184.2 49.35 187.1 L49.25 190.95 49.25 195.0 49.25 198.9 49.3 203.6 43.65 203.5 43.75 198.1 43.8 191.75 43.75 184.25 43.55 175.3 50.0 175.4 M84.85 176.15 L84.6 179.1 84.45 182.1 84.25 185.0 84.15 187.7 83.95 193.4 Q83.8 196.35 83.8 199.25 L83.6 204.7 82.95 209.55 Q82.45 211.75 81.35 213.4 80.25 215.05 78.4 215.95 76.55 216.85 73.65 216.85 71.45 216.85 70.15 216.25 L68.15 214.7 Q67.45 213.8 67.25 212.75 L67.0 210.95 Q67.0 210.1 67.3 209.4 L68.0 208.1 69.2 207.2 70.7 206.9 Q71.65 206.9 72.35 207.25 L73.6 208.15 74.3 209.4 74.55 210.8 74.4 211.6 73.95 212.4 73.1 213.25 73.65 213.45 74.15 213.45 75.55 213.1 76.8 211.85 77.8 209.8 Q78.2 208.55 78.25 206.85 L78.3 203.15 78.35 199.2 Q77.5 200.85 76.55 201.75 L74.7 203.0 Q73.7 203.5 72.65 203.6 70.8 203.6 69.45 202.7 68.1 201.8 67.2 200.1 66.3 198.4 65.85 196.05 65.4 193.65 65.4 190.7 65.4 182.55 66.55 175.15 L72.85 175.85 72.5 177.65 72.15 179.65 71.9 181.8 71.65 183.8 71.3 188.45 Q71.3 190.8 71.45 192.6 71.6 194.35 72.0 195.5 72.35 196.65 73.05 197.2 73.7 197.8 74.75 197.8 75.5 197.65 76.2 196.75 L76.8 195.75 77.45 194.3 78.1 192.25 78.65 189.5 78.75 185.95 78.8 182.85 78.7 179.45 78.5 176.05 84.85 176.15 M99.8 204.0 L99.55 202.45 99.35 200.8 Q98.2 202.5 96.6 203.4 95.0 204.3 93.1 204.3 L91.15 204.0 89.3 202.95 Q88.45 202.15 87.9 200.85 87.35 199.5 87.35 197.45 87.35 195.75 87.85 194.5 88.35 193.25 89.15 192.3 L90.95 190.65 Q91.95 189.95 92.95 189.4 L94.8 188.4 96.3 187.45 98.2 185.6 99.5 183.55 99.15 180.7 98.45 178.95 Q98.05 178.25 97.45 178.0 L96.05 177.75 Q94.9 177.75 94.1 178.25 93.3 178.75 92.8 179.45 L93.8 180.3 94.3 181.15 94.5 182.15 Q94.5 183.85 93.55 184.7 92.6 185.6 91.1 185.6 90.35 185.6 89.7 185.25 L88.55 184.25 Q88.05 183.6 87.8 182.7 87.5 181.8 87.5 180.75 87.5 179.7 88.0 178.55 88.45 177.4 89.5 176.4 90.55 175.35 92.2 174.7 93.85 174.05 96.2 174.05 98.55 174.05 100.2 174.95 101.85 175.85 102.95 177.4 104.0 178.85 104.5 180.85 105.0 182.8 105.0 184.9 L104.95 188.3 104.95 192.1 104.95 195.35 105.05 198.45 105.25 201.3 105.55 203.65 99.8 204.0 M99.45 189.45 L97.6 191.2 96.0 192.4 94.4 193.75 93.15 195.3 Q92.7 196.05 92.7 196.85 92.7 198.0 93.2 198.8 93.75 199.6 94.75 199.6 95.7 199.6 96.4 199.1 L97.7 197.85 98.65 196.3 99.25 194.75 99.45 189.45 M131.05 204.0 L130.8 202.45 130.6 200.8 Q129.45 202.5 127.85 203.4 126.25 204.3 124.35 204.3 L122.4 204.0 Q121.35 203.7 120.55 202.95 119.7 202.15 119.15 200.85 118.6 199.5 118.6 197.45 118.6 195.75 119.1 194.5 119.6 193.25 120.4 192.3 121.2 191.35 122.2 190.65 L124.2 189.4 Q125.15 188.85 126.05 188.4 L127.55 187.45 129.45 185.6 130.75 183.55 130.4 180.7 Q130.15 179.6 129.7 178.95 129.3 178.25 128.7 178.0 L127.3 177.75 Q126.15 177.75 125.35 178.25 124.55 178.75 124.05 179.45 L125.05 180.3 125.55 181.15 125.75 182.15 Q125.75 183.85 124.8 184.7 123.85 185.6 122.35 185.6 L120.95 185.25 119.8 184.25 Q119.3 183.6 119.05 182.7 118.75 181.8 118.75 180.75 118.75 179.7 119.25 178.55 119.7 177.4 120.75 176.4 121.8 175.35 123.45 174.7 125.1 174.05 127.45 174.05 129.8 174.05 131.45 174.95 133.1 175.85 134.2 177.4 135.25 178.85 135.75 180.85 136.25 182.8 136.25 184.9 L136.2 188.3 136.2 192.1 136.2 195.35 136.3 198.45 136.5 201.3 136.8 203.65 131.05 204.0 M146.4 175.4 L146.25 177.45 Q147.1 176.1 148.05 175.35 L149.75 174.35 151.1 174.0 151.65 174.0 Q153.5 174.0 154.9 174.85 156.25 175.7 157.15 177.3 158.05 178.9 158.5 181.2 158.9 183.5 158.9 186.4 L158.85 190.8 158.6 195.25 158.1 199.5 157.25 203.5 151.45 202.8 152.35 197.25 152.85 192.8 153.05 188.7 152.9 184.55 152.35 181.65 Q151.95 180.5 151.3 179.9 150.65 179.35 149.6 179.35 148.9 179.5 148.2 180.35 147.6 181.05 146.9 182.65 146.25 184.2 145.75 187.1 L145.65 190.95 145.65 195.0 145.65 198.9 145.7 203.6 140.05 203.5 140.15 198.1 140.2 191.75 140.15 184.25 139.95 175.3 146.4 175.4 M130.7 189.45 L128.85 191.2 127.25 192.4 125.65 193.75 124.4 195.3 Q123.95 196.05 123.95 196.85 123.95 198.0 124.45 198.8 125.0 199.6 126.0 199.6 126.95 199.6 127.65 199.1 L128.95 197.85 129.9 196.3 130.5 194.75 130.7 189.45" fill="#ffcc00" fill-rule="evenodd" stroke="none"/>
  </g>
</svg>
